<svg id="Layer_1" data-name="Layer 1" xmlns="http://www.w3.org/2000/svg" viewBox="0 0 476.91 444.14"><defs><style>.cls-1,.cls-22{fill:#999;}.cls-1,.cls-11,.cls-13,.cls-14,.cls-15,.cls-16,.cls-17,.cls-18,.cls-19,.cls-2,.cls-20,.cls-21,.cls-9{stroke:#263238;}.cls-1,.cls-11,.cls-12,.cls-13,.cls-14,.cls-15,.cls-16,.cls-17,.cls-18,.cls-19,.cls-2,.cls-20,.cls-21,.cls-3,.cls-8,.cls-9{stroke-linecap:round;stroke-linejoin:round;}.cls-2,.cls-25,.cls-5,.cls-6,.cls-7{fill:#fff;}.cls-14,.cls-15,.cls-16,.cls-17,.cls-18,.cls-19,.cls-20,.cls-21,.cls-3,.cls-8,.cls-9{fill:none;}.cls-3{stroke:#fff;}.cls-12,.cls-13,.cls-4{fill:#7e8af5;}.cls-5{opacity:0.8;}.cls-23,.cls-24,.cls-26,.cls-5,.cls-6,.cls-7{isolation:isolate;}.cls-6{opacity:0.6;}.cls-7{opacity:0.4;}.cls-8{stroke:#7f7f7f;}.cls-10,.cls-11,.cls-26{fill:#263238;}.cls-12{stroke:#7e8af5;}.cls-14{stroke-dasharray:1.71 1.71;}.cls-15{stroke-dasharray:1.98 1.98;}.cls-16{stroke-dasharray:1.58 1.58;}.cls-17{stroke-dasharray:1.83 1.83;}.cls-18{stroke-dasharray:1.67 1.67;}.cls-19{stroke-dasharray:1.95 1.95;}.cls-20{stroke-dasharray:1.99 1.99;}.cls-21{stroke-dasharray:1.93 1.93;}.cls-23{opacity:0.2;}.cls-24,.cls-26{opacity:0.3;}</style></defs><title>company homepage 1</title><path class="cls-1" d="M1003.82,676.8l-8.28-1.17V635l8.28.88Z" transform="translate(-721.85 -318.24)"/><path class="cls-2" d="M1190.16,655.64l-381-40.4V384.18l381-49.26Z" transform="translate(-721.85 -318.24)"/><path class="cls-1" d="M1193.41,334.5l-387.5,50.13c-2.68.35-4.85-1-4.85-3.2v-3.54c0-2.07,2.17-4.14,4.85-4.51l387.5-54.6c2.67-.38,4.85,1.73,4.85,4.72v5a6,6,0,0,1-4.85,6Z" transform="translate(-721.85 -318.24)"/><path class="cls-3" d="M1183.08,324.46l6.78-1" transform="translate(-721.85 -318.24)"/><path class="cls-3" d="M1164.88,327.07l10.36-1.48" transform="translate(-721.85 -318.24)"/><path class="cls-3" d="M841.25,373.21l317.51-45.29" transform="translate(-721.85 -318.24)"/><path class="cls-3" d="M809.48,377.75l23.57-3.37" transform="translate(-721.85 -318.24)"/><path class="cls-4" d="M1037.06,621.39l-64.8-5.83V524l64.85-.15Z" transform="translate(-721.85 -318.24)"/><path class="cls-5" d="M1037.06,621.39l-64.8-5.83V524l64.85-.15Z" transform="translate(-721.85 -318.24)"/><path class="cls-4" d="M1101.91,627.22l-64.85-5.83V523.93l64.85-.13Z" transform="translate(-721.85 -318.24)"/><path class="cls-6" d="M1101.91,627.22l-64.85-5.83V523.93l64.85-.13Z" transform="translate(-721.85 -318.24)"/><path class="cls-4" d="M1166.75,633.06l-64.84-5.84V523.76l64.84-.15Z" transform="translate(-721.85 -318.24)"/><path class="cls-7" d="M1166.75,633.06l-64.84-5.84V523.76l64.84-.15Z" transform="translate(-721.85 -318.24)"/><path class="cls-8" d="M1166.75,523.61,972.26,524" transform="translate(-721.85 -318.24)"/><path class="cls-8" d="M972.26,537.11l194.54,2.14" transform="translate(-721.85 -318.24)"/><path class="cls-8" d="M1166.75,554.88l-194.49-4.69" transform="translate(-721.85 -318.24)"/><path class="cls-8" d="M972.26,563.31l194.54,7.25" transform="translate(-721.85 -318.24)"/><path class="cls-8" d="M1166.75,586.15l-194.49-9.82" transform="translate(-721.85 -318.24)"/><path class="cls-8" d="M972.26,589.41l194.54,12.38" transform="translate(-721.85 -318.24)"/><path class="cls-8" d="M1166.75,617.42,972.26,602.48" transform="translate(-721.85 -318.24)"/><path class="cls-8" d="M972.26,615.56l194.54,17.5" transform="translate(-721.85 -318.24)"/><path class="cls-8" d="M988.43,617V524" transform="translate(-721.85 -318.24)"/><path class="cls-8" d="M972.26,524v91.52" transform="translate(-721.85 -318.24)"/><path class="cls-8" d="M1020.85,619.93v-96" transform="translate(-721.85 -318.24)"/><path class="cls-8" d="M1004.64,523.93v94.51" transform="translate(-721.85 -318.24)"/><path class="cls-8" d="M1053.28,622.85v-99" transform="translate(-721.85 -318.24)"/><path class="cls-8" d="M1037.06,523.93v97.5" transform="translate(-721.85 -318.24)"/><path class="cls-8" d="M1085.7,625.76v-102" transform="translate(-721.85 -318.24)"/><path class="cls-8" d="M1069.48,523.82v100.5" transform="translate(-721.85 -318.24)"/><path class="cls-8" d="M1118.12,628.68v-105" transform="translate(-721.85 -318.24)"/><path class="cls-8" d="M1101.91,523.76V627.22" transform="translate(-721.85 -318.24)"/><path class="cls-8" d="M1150.55,631.6v-108" transform="translate(-721.85 -318.24)"/><path class="cls-8" d="M1134.33,523.69V630.15" transform="translate(-721.85 -318.24)"/><path class="cls-8" d="M1166.75,523.61V633.06" transform="translate(-721.85 -318.24)"/><path class="cls-9" d="M972.26,524v91.52l194.54,17.5V523.61Z" transform="translate(-721.85 -318.24)"/><path class="cls-10" d="M980.33,615.89l-4.87-.44V589.21l4.87.31Z" transform="translate(-721.85 -318.24)"/><path class="cls-4" d="M985.18,616.33l-4.85-.44V576.35l4.85.25Z" transform="translate(-721.85 -318.24)"/><path class="cls-10" d="M996.53,617.35l-4.86-.44V570.29l4.86.21Z" transform="translate(-721.85 -318.24)"/><path class="cls-4" d="M1001.4,617.78l-4.87-.43V563.77l4.87.18Z" transform="translate(-721.85 -318.24)"/><path class="cls-10" d="M1012.74,618.8l-4.85-.44V577.73l4.85.25Z" transform="translate(-721.85 -318.24)"/><path class="cls-4" d="M1017.6,619.26l-4.86-.44V571.16l4.86.21Z" transform="translate(-721.85 -318.24)"/><path class="cls-11" d="M1029,620.29l-4.87-.43V592.32l4.87.31Z" transform="translate(-721.85 -318.24)"/><path class="cls-12" d="M1033.82,620.69l-4.86-.44V587.09l4.86.28Z" transform="translate(-721.85 -318.24)"/><path class="cls-10" d="M1045.16,621.7l-4.85-.43V574.09l4.85.22Z" transform="translate(-721.85 -318.24)"/><path class="cls-4" d="M1050,622.14l-4.87-.44V583.24l4.87.26Z" transform="translate(-721.85 -318.24)"/><path class="cls-10" d="M1061.37,623.15l-4.86-.43V581.81l4.86.25Z" transform="translate(-721.85 -318.24)"/><path class="cls-4" d="M1066.24,623.59l-4.86-.44V575l4.86.22Z" transform="translate(-721.85 -318.24)"/><path class="cls-10" d="M1077.6,624.6l-4.87-.43V573l4.87.21Z" transform="translate(-721.85 -318.24)"/><path class="cls-4" d="M1082.45,625l-4.85-.44V577.05l4.85.23Z" transform="translate(-721.85 -318.24)"/><path class="cls-10" d="M1093.8,626.05l-4.86-.43v-63l4.86.17Z" transform="translate(-721.85 -318.24)"/><path class="cls-4" d="M1098.67,626.51l-4.87-.45V555.3l4.87.13Z" transform="translate(-721.85 -318.24)"/><path class="cls-10" d="M1110.07,627.54l-4.86-.43V567.78l4.86.18Z" transform="translate(-721.85 -318.24)"/><path class="cls-4" d="M1114.87,564.5V628l-4.8-.41v-63.2Z" transform="translate(-721.85 -318.24)"/><path class="cls-10" d="M1126.23,629l-4.87-.43V560.35l4.87.15Z" transform="translate(-721.85 -318.24)"/><path class="cls-4" d="M1131.09,629.4l-4.86-.44V561.91l4.86.14Z" transform="translate(-721.85 -318.24)"/><path class="cls-10" d="M1142.43,630.41l-4.85-.43V550.87l4.85.11Z" transform="translate(-721.85 -318.24)"/><path class="cls-4" d="M1147.3,630.85l-4.87-.44v-83.8l4.87.09Z" transform="translate(-721.85 -318.24)"/><path class="cls-10" d="M1158.65,631.87l-4.87-.44V538.65l4.87.05Z" transform="translate(-721.85 -318.24)"/><path class="cls-4" d="M1163.51,632.3l-4.86-.43v-97.1h4.86Z" transform="translate(-721.85 -318.24)"/><path class="cls-2" d="M1038.44,573l-14.1-.62a3.11,3.11,0,0,1-3.11-2.79v-9a2.75,2.75,0,0,1,1-1.93,2.81,2.81,0,0,1,2.09-.62l14.1.43a3.07,3.07,0,0,1,2.11.77,3.11,3.11,0,0,1,1,2v9.18a2.69,2.69,0,0,1-.31,1.08,2.8,2.8,0,0,1-.7.87,2.85,2.85,0,0,1-1,.52A2.61,2.61,0,0,1,1038.44,573Z" transform="translate(-721.85 -318.24)"/><path class="cls-10" d="M1025.29,568.93a1.91,1.91,0,0,1-1.22-.68,2,2,0,0,1-.44-1.33v-.51h1.46V567c0,.5.3.73.78.75s.79-.18.79-.71-.28-1-1.31-1.75c-1.24-.88-1.67-1.56-1.67-2.46a1.69,1.69,0,0,1,.42-1.26,1.58,1.58,0,0,1,.54-.42,1.61,1.61,0,0,1,.65-.17v-.72h1.25V561a1.89,1.89,0,0,1,1.21.67,1.93,1.93,0,0,1,.42,1.33v.29h-1.44V563a.77.77,0,0,0,0-.3.65.65,0,0,0-.17-.26.63.63,0,0,0-.26-.16.77.77,0,0,0-.3,0c-.49,0-.76.2-.76.67s.28,1,1.3,1.7c1.25.9,1.68,1.57,1.68,2.52a1.62,1.62,0,0,1-.08.69,1.74,1.74,0,0,1-.34.61,1.79,1.79,0,0,1-.56.43,2,2,0,0,1-.67.18v.82h-1.25Z" transform="translate(-721.85 -318.24)"/><path class="cls-1" d="M1036.74,566.13v-5.44l-3.38-.11V566l-2.41-.08,4.14,4.65,4.1-4.35Z" transform="translate(-721.85 -318.24)"/><path class="cls-2" d="M1128.42,551.91l-14.12-.32a3.16,3.16,0,0,1-2.14-.85,3.1,3.1,0,0,1-1-2.1v-9.79a3,3,0,0,1,3.1-2.85l14.12.13a3.09,3.09,0,0,1,3.1,3V549a3,3,0,0,1-.26,1.14,2.91,2.91,0,0,1-.68,1,2.87,2.87,0,0,1-1,.61A2.91,2.91,0,0,1,1128.42,551.91Z" transform="translate(-721.85 -318.24)"/><path class="cls-10" d="M1115.25,547.82a2,2,0,0,1-1.65-2.15v-.59H1115v.68a.69.69,0,0,0,0,.32.72.72,0,0,0,.44.44.69.69,0,0,0,.32,0,.58.58,0,0,0,.32,0,.72.72,0,0,0,.44-.44.93.93,0,0,0,0-.33c0-.64-.28-1.1-1.31-1.86-1.24-.93-1.68-1.66-1.68-2.63a1.9,1.9,0,0,1,.39-1.36,1.85,1.85,0,0,1,1.22-.71v-.76h1.25v.79a1.95,1.95,0,0,1,1.64,2.12v.25h-1.44v-.35a.69.69,0,0,0,0-.32.57.57,0,0,0-.16-.27.68.68,0,0,0-.26-.18.69.69,0,0,0-.32,0,.82.82,0,0,0-.31,0,.63.63,0,0,0-.26.16.77.77,0,0,0-.17.27.8.8,0,0,0,0,.31c0,.59.28,1,1.31,1.81,1.25.93,1.69,1.66,1.69,2.68a2,2,0,0,1-.42,1.37,1.91,1.91,0,0,1-1.24.7v.9h-1.25Z" transform="translate(-721.85 -318.24)"/><path class="cls-1" d="M1123.33,543.42v5.89l3.38.07v-5.91h2.41l-4.14-5-4.1,4.83Z" transform="translate(-721.85 -318.24)"/><path class="cls-13" d="M1067.35,471a55,55,0,0,0,13.18,1.21c24.92-.67,47.54-19.38,47.66-43.83.07-23.42-23.5-41.31-47.66-37.84V431.4Q1074,451.23,1067.35,471Z" transform="translate(-721.85 -318.24)"/><path class="cls-1" d="M1080.53,431.4V390.56c-23.26,2.38-48,20.62-47.66,43.82.29,17.5,15.87,33.38,34.44,36.64Q1074,451.22,1080.53,431.4Z" transform="translate(-721.85 -318.24)"/><path class="cls-9" d="M1063.24,414.73a2.56,2.56,0,0,0-.31-1.05,2.7,2.7,0,0,0-.71-.83,2.74,2.74,0,0,0-1-.47,2.67,2.67,0,0,0-1.09,0,3.19,3.19,0,0,0-2.1.83,3.22,3.22,0,0,0-1,2v1.64a2.59,2.59,0,0,0,1,1.88,2.78,2.78,0,0,0,1,.47,2.55,2.55,0,0,0,1.1,0,3.18,3.18,0,0,0,2.09-.83,3.12,3.12,0,0,0,1-2" transform="translate(-721.85 -318.24)"/><path class="cls-9" d="M1054.59,446.23v5.29a1.91,1.91,0,0,0,.22.7,1.7,1.7,0,0,0,.47.56,1.67,1.67,0,0,0,.65.33,1.84,1.84,0,0,0,.74.05h0a2.08,2.08,0,0,0,2.07-1.84V438a1.43,1.43,0,0,1,1.33-1.33,1.51,1.51,0,0,1,.52,0,1.19,1.19,0,0,1,.47.22,1.07,1.07,0,0,1,.34.39,1.23,1.23,0,0,1,.16.49v13.47a1.68,1.68,0,0,0,.21.7,1.62,1.62,0,0,0,.47.57,1.82,1.82,0,0,0,.65.33,1.84,1.84,0,0,0,.74.05,2.08,2.08,0,0,0,2.07-1.85V438.1" transform="translate(-721.85 -318.24)"/><path class="cls-9" d="M1054.59,442.75v1.56" transform="translate(-721.85 -318.24)"/><path class="cls-9" d="M1065.68,436.22V425.71a.69.69,0,0,1,.22-.43.7.7,0,0,1,.45-.17h0a.65.65,0,0,1,.24,0,.58.58,0,0,1,.21.1.65.65,0,0,1,.15.18.62.62,0,0,1,.07.23v6.21a1.42,1.42,0,0,0,.46,1,1.41,1.41,0,0,0,1,.38,1.72,1.72,0,0,0,1.21-.39,1.69,1.69,0,0,0,.6-1.12v-7.49c0-2-1.87-3.43-4.19-3.27l-12,.87c-2.32.18-4.15,1.88-4.15,3.82v7.25a1.41,1.41,0,0,0,.47,1,1.49,1.49,0,0,0,1,.37,1.68,1.68,0,0,0,1.2-.38,1.7,1.7,0,0,0,.61-1.11v-6.22a.69.69,0,0,1,.22-.44.66.66,0,0,1,.45-.17h0a.65.65,0,0,1,.24,0,.75.75,0,0,1,.2.1.55.55,0,0,1,.16.18.88.88,0,0,1,.07.23v14.75" transform="translate(-721.85 -318.24)"/><path class="cls-9" d="M1103.78,412.75c.21,1.3.54,3.19.54,3.19l-7.4.55.73-4.46a3.57,3.57,0,0,1,3-2.94,2.92,2.92,0,0,1,3,2.48" transform="translate(-721.85 -318.24)"/><path class="cls-9" d="M1110.17,429.18v-7.74c0-2.07-1.89-3.55-4.2-3.39" transform="translate(-721.85 -318.24)"/><path class="cls-9" d="M1105.53,441.56V439l2.36-.13c-.94-6.33-1.42-9.5-2.36-15.81a.7.7,0,0,1,.21-.45.67.67,0,0,1,.45-.18.49.49,0,0,1,.24,0,.53.53,0,0,1,.21.11.65.65,0,0,1,.15.18.49.49,0,0,1,.06.23v6.44a1.53,1.53,0,0,0,.46,1,1.47,1.47,0,0,0,1,.4" transform="translate(-721.85 -318.24)"/><path class="cls-9" d="M1105.53,444.91v-1.79" transform="translate(-721.85 -318.24)"/><path class="cls-9" d="M1093.62,437.69c-.11.76-.16,1.15-.28,1.91l2.37-.13V449.6a1.65,1.65,0,0,0,.2.72,1.74,1.74,0,0,0,.47.58,1.78,1.78,0,0,0,.65.35,1.91,1.91,0,0,0,.75.06,2.06,2.06,0,0,0,1.4-.54,2,2,0,0,0,.67-1.35V439.24l1.53-.08v10.17a1.82,1.82,0,0,0,.21.72,1.74,1.74,0,0,0,.46.58,1.85,1.85,0,0,0,1.41.41,2.06,2.06,0,0,0,1.41-.54,2.1,2.1,0,0,0,.66-1.36v-2.43" transform="translate(-721.85 -318.24)"/><path class="cls-9" d="M1102.39,418.31l-7.13.52a4.29,4.29,0,0,0-4.14,3.94v7.55a1.45,1.45,0,0,0,1.44,1.4,1.74,1.74,0,0,0,1.23-.4,1.7,1.7,0,0,0,.59-1.14v-6.43a.68.68,0,0,1,.21-.44.73.73,0,0,1,.45-.19h0a.49.49,0,0,1,.24,0,.51.51,0,0,1,.21.1.45.45,0,0,1,.15.19.62.62,0,0,1,.07.23l-1.61,10.88" transform="translate(-721.85 -318.24)"/><path class="cls-1" d="M1145.56,424.67l-5.26.35a3.29,3.29,0,0,1-1.36-.1,3.24,3.24,0,0,1-2-1.7,3.16,3.16,0,0,1-.35-1.31v-4.7a3.91,3.91,0,0,1,3.75-3.64l5.26-.4a3.28,3.28,0,0,1,1.36.1,3.24,3.24,0,0,1,2,1.7,3.14,3.14,0,0,1,.34,1.31v4.78a3.86,3.86,0,0,1-3.74,3.61Z" transform="translate(-721.85 -318.24)"/><path class="cls-10" d="M1158.28,421.13l-3.22.22V420c1.24-2.73,1.85-4.08,3.11-6.82L1160,413v6.62h.78V421H1160v1.78l-1.69.11Zm0-1.4v-3.81l-1.65,3.93Z" transform="translate(-721.85 -318.24)"/><path class="cls-10" d="M1161.54,420.32v-.77l1.59-.11v.88c0,.71.34.94.88.89s.87-.31.87-1V418c0-.7-.35-1-.87-.91s-.88.32-.88,1v.08l-1.59.11c.12-2.2.19-3.3.3-5.5l4.44-.33v1.41l-2.94.21c0,.94-.08,1.41-.13,2.36a1.67,1.67,0,0,1,.62-.59,1.73,1.73,0,0,1,.83-.23c1.23-.08,1.86.67,1.86,2.12V420a2.4,2.4,0,0,1-.65,1.89,2.47,2.47,0,0,1-.85.58,2.3,2.3,0,0,1-1,.17,2,2,0,0,1-1,0,2,2,0,0,1-.85-.48,2,2,0,0,1-.54-.81A2.13,2.13,0,0,1,1161.54,420.32Z" transform="translate(-721.85 -318.24)"/><path class="cls-10" d="M1167.61,416.33v-2.46a1.49,1.49,0,0,1,.09-.66,1.53,1.53,0,0,1,.34-.56,1.72,1.72,0,0,1,.55-.37,1.62,1.62,0,0,1,.65-.11,1.34,1.34,0,0,1,1.54.83,1.5,1.5,0,0,1,.08.63v2.48a1.6,1.6,0,0,1-.09.65,1.55,1.55,0,0,1-.88.93,1.62,1.62,0,0,1-.65.11,1.26,1.26,0,0,1-.64,0,1.36,1.36,0,0,1-1-1.46Zm2.18-.08v-2.61c0-.44-.22-.6-.55-.58a.58.58,0,0,0-.56.66v2.61c0,.44.21.6.56.58S1169.79,416.69,1169.79,416.25Zm3.32-4.23,1-.07L1170,422.14l-1,.07c1.66-4.06,2.49-6.09,4.14-10.18Zm-.8,8.52v-2.48a1.44,1.44,0,0,1,.08-.65,1.53,1.53,0,0,1,.34-.56,1.51,1.51,0,0,1,.54-.36,1.46,1.46,0,0,1,.65-.11,1.38,1.38,0,0,1,.64,0,1.4,1.4,0,0,1,.92.83,1.39,1.39,0,0,1,.07.64v2.47a1.43,1.43,0,0,1-.09.65,1.53,1.53,0,0,1-.34.56,1.57,1.57,0,0,1-.55.37,1.62,1.62,0,0,1-.65.11,1.34,1.34,0,0,1-.63,0,1.45,1.45,0,0,1-.56-.3,1.33,1.33,0,0,1-.35-.53A1.23,1.23,0,0,1,1172.31,420.54Zm2.17-.07v-2.62c0-.44-.22-.6-.56-.58s-.55.21-.55.66v2.61c0,.45.21.61.55.59S1174.48,420.91,1174.48,420.47Z" transform="translate(-721.85 -318.24)"/><path class="cls-13" d="M1145.56,441.51l-5.26.27a3.47,3.47,0,0,1-1.36-.12,3.58,3.58,0,0,1-1.21-.66,3.31,3.31,0,0,1-.84-1.08,3.35,3.35,0,0,1-.34-1.32v-4.74a3.84,3.84,0,0,1,3.75-3.58l5.26-.32a3.35,3.35,0,0,1,1.37.11,3.59,3.59,0,0,1,1.2.65,3.39,3.39,0,0,1,.84,1.08,3.43,3.43,0,0,1,.33,1.33v4.81a3.82,3.82,0,0,1-3.74,3.57Z" transform="translate(-721.85 -318.24)"/><path class="cls-10" d="M1155.42,437.68v-.78l1.59-.08v.87c0,.7.33.93.87.91s.87-.3.87-1v-2.19c0-.7-.33-.95-.87-.91s-.87.31-.87,1v.08l-1.59.09.31-5.47,4.43-.27v1.41l-2.93.16c-.06.95-.08,1.41-.14,2.34a1.73,1.73,0,0,1,.62-.58,1.71,1.71,0,0,1,.83-.21c1.24-.08,1.86.69,1.86,2.13v2.22a2.49,2.49,0,0,1-.12,1,2.26,2.26,0,0,1-.53.86,2.33,2.33,0,0,1-1.86.72,2.12,2.12,0,0,1-1,0,2.07,2.07,0,0,1-1.4-1.3A2,2,0,0,1,1155.42,437.68Z" transform="translate(-721.85 -318.24)"/><path class="cls-10" d="M1161.54,437.35v-.77l1.59-.09v.89c0,.69.34.93.88.9s.87-.29.87-1V435c0-.71-.35-1-.87-.93s-.88.31-.88,1v.08l-1.59.1c.12-2.21.19-3.31.3-5.51l4.44-.27V431l-2.94.17c0,.94-.08,1.42-.13,2.36a1.73,1.73,0,0,1,.62-.58,1.87,1.87,0,0,1,.83-.22c1.23-.07,1.86.7,1.86,2.15v2.23a2.18,2.18,0,0,1-.12,1,2.37,2.37,0,0,1-.53.87,2.37,2.37,0,0,1-1.85.73,2.07,2.07,0,0,1-1,0,2,2,0,0,1-.86-.48,2.17,2.17,0,0,1-.54-.83A2,2,0,0,1,1161.54,437.35Z" transform="translate(-721.85 -318.24)"/><path class="cls-10" d="M1167.61,433.47V431a1.62,1.62,0,0,1,.08-.66,1.71,1.71,0,0,1,.35-.56,1.54,1.54,0,0,1,.55-.36,1.46,1.46,0,0,1,.65-.1,1.34,1.34,0,0,1,.63,0,1.47,1.47,0,0,1,.56.31,1.33,1.33,0,0,1,.35.53,1.36,1.36,0,0,1,.08.63v2.47a1.58,1.58,0,0,1-.09.65,1.53,1.53,0,0,1-.34.56,1.46,1.46,0,0,1-.55.36,1.39,1.39,0,0,1-.64.1,1.26,1.26,0,0,1-.64,0,1.35,1.35,0,0,1-.55-.3,1.47,1.47,0,0,1-.36-.53A1.36,1.36,0,0,1,1167.61,433.47Zm2.18-.05v-2.61c0-.45-.22-.61-.55-.59a.57.57,0,0,0-.56.65v2.61c0,.44.21.61.56.59S1169.79,433.85,1169.79,433.42Zm3.32-4.15,1-.06L1170,439.35l-1,0,4.14-10.17Zm-.8,8.51V435.3a1.4,1.4,0,0,1,.08-.64,1.49,1.49,0,0,1,.89-.92,1.39,1.39,0,0,1,.64-.1,1.26,1.26,0,0,1,.64,0,1.3,1.3,0,0,1,.91.83,1.4,1.4,0,0,1,.08.64v2.49a1.6,1.6,0,0,1-.08.65,1.61,1.61,0,0,1-.9.92,1.6,1.6,0,0,1-.65.09,1.3,1.3,0,0,1-.65,0,1.37,1.37,0,0,1-.56-.32,1.4,1.4,0,0,1-.35-.55,1.3,1.3,0,0,1,0-.65Zm2.17,0v-2.62c0-.44-.22-.61-.56-.59s-.55.22-.55.65v2.62c0,.44.21.61.55.59s.56-.3.56-.73Z" transform="translate(-721.85 -318.24)"/><path class="cls-4" d="M891.45,495.17l-64.84,1.5V390.21l64.84-7.47Z" transform="translate(-721.85 -318.24)"/><path class="cls-5" d="M891.45,495.17l-64.84,1.5V390.21l64.84-7.47Z" transform="translate(-721.85 -318.24)"/><path class="cls-4" d="M956.34,493.68l-64.89,1.49V382.74l64.85-7.47Z" transform="translate(-721.85 -318.24)"/><path class="cls-6" d="M956.34,493.68l-64.89,1.49V382.74l64.85-7.47Z" transform="translate(-721.85 -318.24)"/><path class="cls-4" d="M1021.19,492.19l-64.85,1.49V375.27l64.85-7.47Z" transform="translate(-721.85 -318.24)"/><path class="cls-7" d="M1021.19,492.19l-64.85,1.49V375.27l64.85-7.47Z" transform="translate(-721.85 -318.24)"/><path class="cls-8" d="M1021.19,367.8,826.65,390.21" transform="translate(-721.85 -318.24)"/><path class="cls-8" d="M826.65,405.42l194.54-19.85" transform="translate(-721.85 -318.24)"/><path class="cls-8" d="M1021.19,403.34,826.65,420.63" transform="translate(-721.85 -318.24)"/><path class="cls-8" d="M826.65,435.86l194.54-14.72" transform="translate(-721.85 -318.24)"/><path class="cls-8" d="M1021.19,438.88,826.65,451" transform="translate(-721.85 -318.24)"/><path class="cls-8" d="M826.65,466.25l194.54-9.6" transform="translate(-721.85 -318.24)"/><path class="cls-8" d="M1021.19,474.42l-194.54,7" transform="translate(-721.85 -318.24)"/><path class="cls-8" d="M826.65,496.67l194.54-4.48" transform="translate(-721.85 -318.24)"/><path class="cls-8" d="M842.85,496.3V388.35" transform="translate(-721.85 -318.24)"/><path class="cls-8" d="M826.65,390.21V496.67" transform="translate(-721.85 -318.24)"/><path class="cls-8" d="M875.28,495.54V384.61" transform="translate(-721.85 -318.24)"/><path class="cls-8" d="M859.07,386.47V496" transform="translate(-721.85 -318.24)"/><path class="cls-8" d="M907.7,494.8V380.88" transform="translate(-721.85 -318.24)"/><path class="cls-8" d="M891.45,382.74V495.17" transform="translate(-721.85 -318.24)"/><path class="cls-8" d="M940.14,494.05V377.14" transform="translate(-721.85 -318.24)"/><path class="cls-8" d="M923.92,379V494.43" transform="translate(-721.85 -318.24)"/><path class="cls-8" d="M972.55,493.31V373.41" transform="translate(-721.85 -318.24)"/><path class="cls-8" d="M956.34,375.27V493.68" transform="translate(-721.85 -318.24)"/><path class="cls-8" d="M1005,492.56V369.68" transform="translate(-721.85 -318.24)"/><path class="cls-8" d="M988.76,371.54V492.93" transform="translate(-721.85 -318.24)"/><path class="cls-8" d="M1021.19,367.8V492.19" transform="translate(-721.85 -318.24)"/><path class="cls-9" d="M826.65,390.21V496.67l194.54-4.48V367.85Z" transform="translate(-721.85 -318.24)"/><path class="cls-9" d="M826.65,481.45h1.16" transform="translate(-721.85 -318.24)"/><path class="cls-14" d="M829.79,481.35l10.92-.39" transform="translate(-721.85 -318.24)"/><path class="cls-9" d="M841.71,480.91h1.15l.82-.8" transform="translate(-721.85 -318.24)"/><path class="cls-15" d="M845.3,478.46c4.86-4.82,7.25-7.25,12.14-12.15" transform="translate(-721.85 -318.24)"/><path class="cls-9" d="M858.29,465.49l.82-.83c.33.29.5.44.82.74" transform="translate(-721.85 -318.24)"/><path class="cls-16" d="M861.18,466.58l4.53,4.15" transform="translate(-721.85 -318.24)"/><path class="cls-9" d="M866.35,471.36l.82.77c.16-.44.23-.65.37-1.09" transform="translate(-721.85 -318.24)"/><path class="cls-17" d="M868.21,469c2.55-7.54,3.82-11.34,6.37-19" transform="translate(-721.85 -318.24)"/><path class="cls-9" d="M874.87,449.11c.16-.45.23-.67.37-1.1l1.15-.07" transform="translate(-721.85 -318.24)"/><path class="cls-18" d="M878.37,447.81l2.89-.18" transform="translate(-721.85 -318.24)"/><path class="cls-9" d="M882.23,447.57l1.16-.07.51-1" transform="translate(-721.85 -318.24)"/><path class="cls-19" d="M884.92,444.39l5.55-11.4" transform="translate(-721.85 -318.24)"/><path class="cls-9" d="M891,432l.52-1,1.16-.09" transform="translate(-721.85 -318.24)"/><path class="cls-14" d="M894.64,430.68l10.91-.82" transform="translate(-721.85 -318.24)"/><path class="cls-9" d="M906.54,429.79l1.16-.09.82-.88" transform="translate(-721.85 -318.24)"/><path class="cls-16" d="M909.82,427.42l4.53-4.92" transform="translate(-721.85 -318.24)"/><path class="cls-9" d="M915,421.79l.82-.9,1.16-.09" transform="translate(-721.85 -318.24)"/><path class="cls-20" d="M919.28,420.61l12.74-1c2.59-2.87,3.89-4.3,6.48-7.19" transform="translate(-721.85 -318.24)"/><path class="cls-9" d="M939.31,411.46l.81-.92.82.78" transform="translate(-721.85 -318.24)"/><path class="cls-15" d="M942.57,412.84c4.85,4.6,7.25,6.92,12.14,11.61" transform="translate(-721.85 -318.24)"/><path class="cls-9" d="M955.52,425.23l.82.79c.33-.36.49-.55.82-.92" transform="translate(-721.85 -318.24)"/><path class="cls-16" d="M958.45,423.65c1.82-2.07,2.72-3,4.53-5.1" transform="translate(-721.85 -318.24)"/><path class="cls-9" d="M963.62,417.83l.82-.94,1.16-.09" transform="translate(-721.85 -318.24)"/><path class="cls-21" d="M967.83,416.61l12.83-1c3.24-3.72,4.86-5.59,8.1-9.33l5.83-.52" transform="translate(-721.85 -318.24)"/><path class="cls-9" d="M995.71,405.61l1.16-.1.52-1.16" transform="translate(-721.85 -318.24)"/><path class="cls-19" d="M998.39,402.08c2.22-5,3.34-7.5,5.56-12.53" transform="translate(-721.85 -318.24)"/><path class="cls-9" d="M1004.46,388.4l.51-1.17" transform="translate(-721.85 -318.24)"/><path class="cls-9" d="M826.65,466.25l16.2-.79c6.49-3.41,9.73-5.13,16.22-8.62l8.1-.46c3.24-6.48,4.87-9.74,8.11-16.3,3.25-3.4,4.86-5.1,8.11-8.54,3.24-6.63,4.86-10,8.1-16.68,6.49,2.64,9.73,4,16.21,6.71,3.25,3,4.86,4.48,8.11,7.52,6.48-7,9.73-10.61,16.21-17.82,3.24-6.93,4.86-10.36,8.1-17.43,6.49,6,9.73,9.08,16.22,15.26,3.24,6.49,4.86,9.74,8.1,16.31l16.22-1.23c3.24-3.69,4.86-5.55,8.1-9.33,3.24-10.67,4.87-16,8.11-26.83,3.23-7.32,4.86-11,8.1-18.38" transform="translate(-721.85 -318.24)"/><path class="cls-10" d="M857.73,509.27a3,3,0,0,1-1,.17,2.07,2.07,0,0,1-.93-.1,2.07,2.07,0,0,1-1.29-1.29,2.1,2.1,0,0,1-.09-.93v-4.94a2,2,0,0,1,.1-.94,2.18,2.18,0,0,1,.49-.81,2.11,2.11,0,0,1,.78-.51,2.16,2.16,0,0,1,.94-.14,2,2,0,0,1,.93.1,2,2,0,0,1,.79.49,1.94,1.94,0,0,1,.5.79,2.11,2.11,0,0,1,.1.93V507a2.66,2.66,0,0,1-.43,1.55c.11.18.29.22.57.21h.23v1.33H859a1.11,1.11,0,0,1-.79-.19A1.17,1.17,0,0,1,857.73,509.27Zm-.21-2.07v-5.11c0-.67-.32-.92-.8-.91s-.79.27-.79.94v5.1c0,.67.31.92.79.91s.8-.29.8-1Z" transform="translate(-721.85 -318.24)"/><path class="cls-10" d="M862.21,502.07h-1.6v-1c1.3,0,1.75-.3,2.08-1.23h1v9.41h-1.53Z" transform="translate(-721.85 -318.24)"/><path class="cls-10" d="M922.15,508.51a3,3,0,0,1-1,.18,2.19,2.19,0,0,1-1-.13,2.27,2.27,0,0,1-.8-.54,2.16,2.16,0,0,1-.48-.83,2,2,0,0,1-.08-.95v-5.18a2.24,2.24,0,0,1,.56-1.81,2.36,2.36,0,0,1,.8-.56,2.21,2.21,0,0,1,1-.16,2.14,2.14,0,0,1,2.32,2.44v5.18a2.83,2.83,0,0,1-.42,1.63c.1.2.29.23.57.22h.24v1.43h-.41a1.16,1.16,0,0,1-1.26-.92Zm-.22-2.21v-5.39c0-.7-.31-1-.8-1s-.79.29-.79,1v5.34c0,.7.32,1,.79,1s.8-.28.8-1Z" transform="translate(-721.85 -318.24)"/><path class="cls-10" d="M924.46,507.44a4.75,4.75,0,0,1,.38-1.93,4.67,4.67,0,0,1,1.15-1.59c1.16-1.27,1.49-2.08,1.49-3s-.3-1.13-.78-1.12-.8.29-.8,1v1h-1.44v-1c0-1.58.78-2.5,2.28-2.53s2.28.86,2.28,2.45c0,1.18-.48,2.24-1.9,3.79-.91,1-1.15,1.5-1.15,2.19v.22h2.9v1.42l-4.41.05Z" transform="translate(-721.85 -318.24)"/><path class="cls-10" d="M987,507.74a2.83,2.83,0,0,1-1,.2c-1.5,0-2.32-.93-2.32-2.58v-5.45c0-1.66.82-2.62,2.32-2.66s2.32.92,2.32,2.57v5.46a3,3,0,0,1-.43,1.71c.11.21.29.24.57.23h.24v1.48h-.41a1.18,1.18,0,0,1-1.25-1Zm-.23-2.32v-5.67c0-.75-.3-1-.79-1s-.78.31-.78,1v5.67c0,.73.3,1,.78,1s.75-.3.75-1Z" transform="translate(-721.85 -318.24)"/><path class="cls-10" d="M989.27,505.28v-.85h1.44v.93c0,.73.3,1,.78,1s.8-.27.8-1.19v-.85c0-1-.31-1.31-1-1.3h-.51v-1.5h.55c.57,0,.92-.28.92-1.12v-.75c0-.75-.32-1-.77-1s-.73.3-.73,1v.68h-1.44v-.55c0-1.67.77-2.61,2.22-2.63s2.24.86,2.24,2.53v.44c0,1.12-.33,1.82-1,2.13.82.31,1.12,1,1.12,2.12v.93c0,1.67-.78,2.59-2.28,2.6S989.27,507,989.27,505.28Z" transform="translate(-721.85 -318.24)"/><path class="cls-11" d="M885.36,448.85s-15.43-13.25-5.19-22c0,0,5-15.54,21.18-13.36s8.11-7,8.11-7,9.2,4.82,5,8.54a6.87,6.87,0,0,0,6.29-3.5s2.83,5-2.46,7.25c0,0,6.91,1.75,5.07,5.7,0,0-4.91-2.61-6.22,7.25s-16.93,8.42-16.93,8.42Z" transform="translate(-721.85 -318.24)"/><path class="cls-11" d="M886.34,452.13c0-.51-3.67,10.67,3.31,9.73,3.3-.45-1.4-9.73-1.4-9.73Z" transform="translate(-721.85 -318.24)"/><path class="cls-8" d="M920.36,421.92s-4.15-.66-5,4.14" transform="translate(-721.85 -318.24)"/><path class="cls-8" d="M910.54,420.77c-1.63,2.13-1.08,5.3-1.08,5.3" transform="translate(-721.85 -318.24)"/><path class="cls-8" d="M919.18,415a10.81,10.81,0,0,1-6.21,4.14" transform="translate(-721.85 -318.24)"/><path class="cls-8" d="M900.15,420.55s6.65-1.31,5.77,5.52" transform="translate(-721.85 -318.24)"/><path class="cls-22" d="M932.77,585.85s5.52,28.83,0,57.07-8.93,119-8.93,119H889.47V581.34L931,579.88Z" transform="translate(-721.85 -318.24)"/><path class="cls-23" d="M912.35,624.53s-1.5,10,5.95,7.45,12.62-1.65,6.41,4-14.84,14.17-16.22,45S905,761.83,905,761.83H890L886.9,647.16l13.6-20,6.33-2.63Z" transform="translate(-721.85 -318.24)"/><path class="cls-9" d="M932.77,585.85s5.52,28.83,0,57.07-8.93,119-8.93,119H889.47V581.34L931,579.88Z" transform="translate(-721.85 -318.24)"/><path class="cls-9" d="M928.62,632.08s-7.69-1.63-16.27,7.89" transform="translate(-721.85 -318.24)"/><path class="cls-1" d="M917.24,589.09s-.36,32.12-4.5,44.31-10.36,69.36-9.67,128.48H867.54s-2.07-106.8-3.47-122.57-8.63-13.12,1.38-57.95H918.7Z" transform="translate(-721.85 -318.24)"/><path class="cls-10" d="M910.5,596c2.74-.18,5.23-.4,7.5-.63l.3,5.3c-2.36.24-5,.46-7.8.65Z" transform="translate(-721.85 -318.24)"/><path class="cls-10" d="M921.87,594.91c4.29-.51,7.4-1,9.07-1.34l.72,5.23c-1.95.36-5.28.9-9.79,1.44Z" transform="translate(-721.85 -318.24)"/><path class="cls-10" d="M863.56,600.13l.8-5.18q8.75,1,16.72,1.34l-.36,5.25C875.31,601.25,869.57,600.81,863.56,600.13Z" transform="translate(-721.85 -318.24)"/><path class="cls-10" d="M885.12,596.46c8.1.26,15.41.12,21.76-.23v5.31c-4,.21-8.44.34-13.18.34q-4.2,0-8.75-.16Z" transform="translate(-721.85 -318.24)"/><path class="cls-2" d="M983.86,539.83l8.74-5.28s3.68-9.63,8.29-12.25,9.2-5,10.36-4.39-.22,2.85-3.22,5c-1.86,1.37,3.56-1,10.53-4.15,4.14-1.92,8.93-4.61,9.66-3.45,2.71,4.22-11.12,9.59-11.12,9.59s4.74-.23,2.9,3.27c0,0,.69,3.29-.92,4.39l-1.84,2.23a10.68,10.68,0,0,1-4.14,5.42,31.52,31.52,0,0,1-13.59,4l-11.5,8Z" transform="translate(-721.85 -318.24)"/><path class="cls-9" d="M1014.24,525.36s-9.78,2-9.27,4.15,3.56.64,3.56.64-3.23,1.1-2.88,2.3,2.64,1.18,2.64,1.18-3,.69-2.64,2.07,2.34,1.87,4,1.65,2.91-.78,3.37,0-4.49-.49-7.36,1.54" transform="translate(-721.85 -318.24)"/><path class="cls-9" d="M1006.46,523.72A6.36,6.36,0,0,1,1005,527c-1.2,1.1-.16,4.82-4.53,8.87" transform="translate(-721.85 -318.24)"/><path class="cls-9" d="M1016.39,529.14l-5.44.65" transform="translate(-721.85 -318.24)"/><path class="cls-9" d="M1016,533.24l-5,.41" transform="translate(-721.85 -318.24)"/><path class="cls-13" d="M963.15,545.39c7.59-2.07,16.77-7.74,21.18-10.67a1.79,1.79,0,0,1,.86-.31,1.73,1.73,0,0,1,.9.13,1.75,1.75,0,0,1,.73.56,1.82,1.82,0,0,1,.36.83c.5,4,2.08,10.84,7.38,12.69,7.6,2.68.34,6.8-4.48,8.19s-39.38,18.13-49.74,15.84-13.81-3.95-18.65-13.95-2.42-58.3-2.42-58.3l14.5-3.61s3.8,3.4,5.64,26.16,4.88,25.61,4.88,25.61,9.21-6.81,6.8-.23C951.07,548.33,960.54,546.1,963.15,545.39Z" transform="translate(-721.85 -318.24)"/><path class="cls-9" d="M946.23,552.24s-3.74,12.5-6.56,11.54-2.07-4.36,2.59-11.54" transform="translate(-721.85 -318.24)"/><path class="cls-13" d="M933.8,496.79c-6.72-6.4-16.57-12.81-36.93-14.12s-48.7,3.61-49.74,11.5,10.71,50.14,10.71,88c0,5.59.69,11.83,12.43,11.83s65.6,3.93,66.31-8.87-2.76-25.62-1.72-44S939,501.72,933.8,496.79Z" transform="translate(-721.85 -318.24)"/><path class="cls-4" d="M852.85,488.71s-8.45,2.51-10.3,15.22-9.89,41.37-6.9,42-7.14,5.69-3.46,13.14,20.26,31.52,29.93,28.9,9.2-17.52,6.21-20.15-13.15-8.12-13.15-8.12,3-1.75-.69-5,2.66,1.65,4.6-9.42c2.3-13.13,10.36-32,5.52-43.34" transform="translate(-721.85 -318.24)"/><path class="cls-9" d="M852.85,488.71s-8.45,2.51-10.3,15.22-9.89,41.37-6.9,42-7.14,5.69-3.46,13.14,20.26,31.52,29.93,28.9,9.2-17.52,6.21-20.15-13.15-8.12-13.15-8.12,3-1.75-.69-5,2.66,1.65,4.6-9.42c2.3-13.13,10.36-32,5.52-43.34" transform="translate(-721.85 -318.24)"/><path class="cls-9" d="M853.37,547.91s-13.12-3.11-16.58,2.19,5.45-1.09,14,1.09" transform="translate(-721.85 -318.24)"/><path class="cls-2" d="M872.35,572.87c-2.07-1.48-7-4-10.23-1s-10.94,4.81-10.48,7.11,3.34,3,8.52.45.9.65,1.83,5.68,1.69,9.62,5.74,8.76c0,0,.36,2.19,4,1.2,0,0,2.76,2.26,7.13.26,0,0,2.43,2.48,6-1.79s1.37-5.33,1.37-5.33-1.61-4.94-5.18,0c0,0,.62-6.11-3-9.94A55,55,0,0,0,872.35,572.87Z" transform="translate(-721.85 -318.24)"/><path class="cls-9" d="M869.29,592.32s5.83-3.72,4.56-5.91-6,2.4-6,2.4.69-1.18-.69-3" transform="translate(-721.85 -318.24)"/><path class="cls-9" d="M873.5,593.55s8.82-2.75,6.8-5.38c-1.79-2.32-5.59.34-5.59.34" transform="translate(-721.85 -318.24)"/><path class="cls-9" d="M885.23,589.09s-.93,2.64-5.07,5.19" transform="translate(-721.85 -318.24)"/><path class="cls-9" d="M870.6,581.34a12.89,12.89,0,0,0,5,4.51" transform="translate(-721.85 -318.24)"/><path class="cls-9" d="M853.37,558.7s-7.42-3.62-13.12-.83" transform="translate(-721.85 -318.24)"/><path class="cls-4" d="M909.47,489.4l-5.93-2.13-6.67,2.13s4.48,6.73,6.3,7.06c0,0,6.49,50.43,8.54,74s1.38,25.73,1.38,25.73l9,7.35,6.56-9.27s-3.45-37-7.93-59a183.35,183.35,0,0,0-12.78-39.08S910.55,492.74,909.47,489.4Z" transform="translate(-721.85 -318.24)"/><path class="cls-24" d="M909.47,489.4l-5.93-2.13-6.67,2.13s4.48,6.73,6.3,7.06c0,0,6.49,50.43,8.54,74s1.38,25.73,1.38,25.73l9,7.35,6.56-9.27s-3.45-37-7.93-59a183.35,183.35,0,0,0-12.78-39.08S910.55,492.74,909.47,489.4Z" transform="translate(-721.85 -318.24)"/><path class="cls-9" d="M909.47,489.4l-5.93-2.13-6.67,2.13s4.48,6.73,6.3,7.06c0,0,6.49,50.43,8.54,74s1.38,25.73,1.38,25.73l9,7.35,6.56-9.27s-3.45-37-7.93-59a183.35,183.35,0,0,0-12.78-39.08S910.55,492.74,909.47,489.4Z" transform="translate(-721.85 -318.24)"/><path class="cls-25" d="M910.17,472.13s-1.17,7.57,1.74,12.76c0,0-6.3,2.76-9,3.11s-16.58-7.91-16.58-7.91a100.67,100.67,0,0,0,1.93-26.49c-.89-14.61,15.67,9.13,15.67,9.13l8,7.25Z" transform="translate(-721.85 -318.24)"/><path class="cls-11" d="M912.74,472.82s.17,4.92-6.82,4.76S892,467,890.83,464.44s-2.56-14.77-2.56-14.77l17.61,4.95,8.55,17.51Z" transform="translate(-721.85 -318.24)"/><path class="cls-9" d="M910.17,472.13s-1.17,7.57,1.74,12.76c0,0-6.3,2.76-9,3.11s-16.58-7.91-16.58-7.91a100.67,100.67,0,0,0,1.93-26.49c-.89-14.61,15.67,9.13,15.67,9.13l8,7.25Z" transform="translate(-721.85 -318.24)"/><path class="cls-13" d="M910.91,481.13s-3.45,5.92-7.37,6.14-17-12.44-19.79-10.51a10,10,0,0,0-3.58,5.18l11.73,13.89s8.59-7.33,12-7.11,10.87,7.11,10.87,7.11V485.77S912.53,478.84,910.91,481.13Z" transform="translate(-721.85 -318.24)"/><path class="cls-25" d="M915.91,428s4.83,14.16,3.88,17.77c0,0,4.49,26.85-6.22,29-8.46,1.68-16.82-6.44-20-10a9.88,9.88,0,0,1-2-3.34l-2.07-6.08s-4.22.31-6.79-5.34,2.67-11.15,6.72-2.58c0,0,3.17-8.66,2.93-12.15s4.33-2.63,5.27-6.07C897.66,429.2,908.5,431,915.91,428Z" transform="translate(-721.85 -318.24)"/><path class="cls-9" d="M915.91,428s4.83,14.16,3.88,17.77c0,0,4.49,26.85-6.22,29-8.46,1.68-16.82-6.44-20-10a9.88,9.88,0,0,1-2-3.34l-2.07-6.08s-4.22.31-6.79-5.34,2.67-11.15,6.72-2.58c0,0,3.17-8.66,2.93-12.15s4.33-2.63,5.27-6.07C897.66,429.2,908.5,431,915.91,428Z" transform="translate(-721.85 -318.24)"/><path class="cls-25" d="M915.39,448.23l5.72,7.2a1.18,1.18,0,0,1,.26.58,1.43,1.43,0,0,1,0,.65,1.4,1.4,0,0,1-.33.55,1.37,1.37,0,0,1-.55.34L916.4,459" transform="translate(-721.85 -318.24)"/><path class="cls-9" d="M915.39,448.23l5.72,7.2a1.18,1.18,0,0,1,.26.58,1.43,1.43,0,0,1,0,.65,1.4,1.4,0,0,1-.33.55,1.37,1.37,0,0,1-.55.34L916.4,459" transform="translate(-721.85 -318.24)"/><path class="cls-9" d="M907.07,461.86s1.77,3.65,7.7.43" transform="translate(-721.85 -318.24)"/><path class="cls-9" d="M914.42,447.94c.17,3.58-1.59,6.56-3.93,6.67s-4.38-2.72-4.56-6.29,1.59-4.61,3.93-4.72S914.24,444.35,914.42,447.94Z" transform="translate(-721.85 -318.24)"/><path class="cls-2" d="M925.2,447.13c.18,3.58-1.23,6.56-3.1,6.64s-3.61-2.75-3.79-6.33,1.26-4.59,3.17-4.69S925,443.54,925.2,447.13Z" transform="translate(-721.85 -318.24)"/><path class="cls-9" d="M906,442.72s2.55-3.73,7.07-.88" transform="translate(-721.85 -318.24)"/><path class="cls-9" d="M918.39,441.83a5.32,5.32,0,0,1,3.11-1.74" transform="translate(-721.85 -318.24)"/><path class="cls-9" d="M906,448.3a22.87,22.87,0,0,1-4.58.79c-3.51-.35-13.08-5-13.08-5" transform="translate(-721.85 -318.24)"/><path class="cls-9" d="M918.26,446.85l-3.67.63" transform="translate(-721.85 -318.24)"/><path class="cls-10" d="M912.36,448.37c-.11,1.11-.77,1.95-1.5,1.89s-1.21-1-1.11-2.08.77-1.94,1.49-1.88S912.46,447.26,912.36,448.37Z" transform="translate(-721.85 -318.24)"/><path class="cls-10" d="M921.29,447.16c-.11,1-.6,1.91-1.12,1.86s-.85-.94-.75-2,.59-1.9,1.11-1.86S921.38,446.09,921.29,447.16Z" transform="translate(-721.85 -318.24)"/><path class="cls-9" d="M880.35,572c1.81-4.69,14-3.91,14-3.91" transform="translate(-721.85 -318.24)"/><path class="cls-9" d="M909.39,574.32c-12.9,3.11-26.94,5.34-28.79.95" transform="translate(-721.85 -318.24)"/><path class="cls-9" d="M931.66,568.05s-1.35.44-3.6,1.13" transform="translate(-721.85 -318.24)"/><path class="cls-13" d="M1196.69,761.87H741.61v-60.6s88.18-34.19,202-34.19C1082.45,667.13,1196.69,761.87,1196.69,761.87Z" transform="translate(-721.85 -318.24)"/><path class="cls-23" d="M1009.18,684l-53.72-7.24L900.81,686l53.73,7.26Z" transform="translate(-721.85 -318.24)"/><path class="cls-2" d="M1002.6,683.53l-49.92-6.74-50.78,8.58,49.92,6.73Z" transform="translate(-721.85 -318.24)"/><path class="cls-2" d="M1009.18,681.5l-49.92-6.73-50.78,8.58,49.92,6.73Z" transform="translate(-721.85 -318.24)"/><path class="cls-23" d="M906.62,718.79c9.47,0,17.14-1.56,17.14-3.5s-7.67-3.5-17.14-3.5-17.15,1.57-17.15,3.5S897.15,718.79,906.62,718.79Z" transform="translate(-721.85 -318.24)"/><path class="cls-2" d="M916.53,714.34c0,1-5.53,1.76-12.37,1.76s-12.36-.79-12.36-1.76V691.13c0-1,5.53-1.76,12.36-1.76s12.37.79,12.37,1.76Z" transform="translate(-721.85 -318.24)"/><path class="cls-2" d="M916.53,691.13c0,1-5.53,1.76-12.37,1.76s-12.36-.79-12.36-1.76,5.53-1.76,12.36-1.76S916.53,690.16,916.53,691.13Z" transform="translate(-721.85 -318.24)"/><path class="cls-2" d="M915,712.14a1.35,1.35,0,0,1-1.37-1.14,1.31,1.31,0,0,1,0-.52A1.4,1.4,0,0,1,914,710a1.19,1.19,0,0,1,.4-.34,1.33,1.33,0,0,1,.5-.16c.31,0,7.82-1.16,7.82-7.91,0-1.7-.46-2.85-1.35-3.43-1.67-1-4.79-.23-5.75.15a1.42,1.42,0,0,1-1.81-.72,1.34,1.34,0,0,1-.1-.52,1.25,1.25,0,0,1,.11-.5,1.19,1.19,0,0,1,.3-.43,1.34,1.34,0,0,1,.44-.27c.53-.21,5.18-1.93,8.35.1,1.71,1.1,2.58,3,2.58,5.62,0,7.25-6.67,10.06-10.2,10.53Z" transform="translate(-721.85 -318.24)"/><path class="cls-11" d="M932.81,697c-.82.78-1.38,1.53-1.23,1.67s.93-.39,1.76-1.18,1.38-1.53,1.23-1.66S933.64,696.26,932.81,697Z" transform="translate(-721.85 -318.24)"/><path class="cls-13" d="M937.26,689.92c-3.38,3.22-5.33,6.59-4.35,7.52s4.54-.91,7.93-4.14l21.83-20.78c3.39-3.22,5.34-6.6,4.35-7.53s-4.53.91-7.91,4.14Z" transform="translate(-721.85 -318.24)"/><path class="cls-11" d="M959.47,675.58l-.9.86a23.58,23.58,0,0,1-1.86-1.63c-.6-.59-1.18-1.17-1.71-1.76l.9-.86c.53.59,1.1,1.18,1.71,1.76S958.85,675.07,959.47,675.58Z" transform="translate(-721.85 -318.24)"/><path class="cls-9" d="M964.34,665.33s-1.51-.93-5,1.62-6.68,6.95-8.28,6.8" transform="translate(-721.85 -318.24)"/><path class="cls-2" d="M922.29,708.23s2.52-6.09,2.52-9.19,6.55-13.59,11.4-15.43,21.18-9.54,22.37-6.43-6.16,7-7.7,7.71a33.83,33.83,0,0,0-4.83,3.68s7.47-1.49,8.29-3.85,3.11-5.52,4.35-3.49.67,7.15-1.26,11.1V695s2.12,3.1-.19,5.68l-1.78,1.84s3.11,3.11-1.12,5.7c0,0,1.94,2.75-1.54,5.5,0,0-7.34,3.49-12,4.59s-8.68,7.72-8.68,7.72Z" transform="translate(-721.85 -318.24)"/><path class="cls-2" d="M780.42,602.91l12.1-27-7.79-22.62-.78-26,21.32-12,18.83-3.17,7.68,4.45L835,524s9.57,19.35,8.09,23.07-2.58,7.25-2.58,7.25,4.52,10,7.19,13.25-5.61,1.25-6.59,7,.19,21-6.92,21.71-11.4-1.52-12,4.48-8,21.23-8,21.23Z" transform="translate(-721.85 -318.24)"/><path class="cls-11" d="M839.79,494.92c-1-3.48-11,1.36-12,8.82,0,0-1.28-11.4-4.57-12.49-2.88-.94-6.86,4.23-5.42,10.37,0,0-10.77-5.66-14.24-4.35-2.57,1-3.47,6,2.07,10.37,0,0-33.65-7.48-31.68,21.83,0,0-18.5,13.79,15.73,53,0,0,8.12-1.8,10.36-3.11,1.3-.75,12.12-9.32,12.12-9.32-3.11-1.11-8.51-4.28-10-8.1-1.86-4.84.64-10.62,5.18-11.4,2.73-.47,4.27.75,6.22,2.92,0,0-4.48-5.67-4.21-7.86.36-2.75,7.13-5.66,7.63-8.38.23-1.29-2.79-3.82-2-4.88,4.06-5.42,23.47.86,21.48-17.11S841.24,499.8,839.79,494.92Z" transform="translate(-721.85 -318.24)"/><path class="cls-10" d="M839.07,552.94c0,1.42-.28,2.58-.73,2.59s-.84-1.12-.88-2.54.28-2.58.72-2.59S839,551.55,839.07,552.94Z" transform="translate(-721.85 -318.24)"/><path class="cls-9" d="M835.67,547.85s1.19-3.64,3.56-3.88" transform="translate(-721.85 -318.24)"/><path class="cls-8" d="M810.25,519.86c11.62.92,2-16.14,2-16.14" transform="translate(-721.85 -318.24)"/><path class="cls-8" d="M780.76,527.85s9.15-13.3,26-8.65" transform="translate(-721.85 -318.24)"/><path class="cls-8" d="M826.17,512.24c1.14,5.9,0,13.8-13.57,14.75" transform="translate(-721.85 -318.24)"/><path class="cls-8" d="M823.85,505.68a21.36,21.36,0,0,1,1.22,2.77" transform="translate(-721.85 -318.24)"/><path class="cls-11" d="M836.41,761.87s10.49-108-1.95-128.37-49.6-44.29-62.89-33.93c-46.13,36.12-46.28,67-49.22,162.28Z" transform="translate(-721.85 -318.24)"/><path class="cls-11" d="M826.29,629.62s14.66,3.85,22.79,25.9c7.49,20.23,21.11,46.91,30.19,60.21a6.65,6.65,0,0,0,6.51,2.71c4-.63,11.63-1.12,18.93-5.08,6.77-3.68,12.74-7.71,20.27-6.62s12.23,8.1,11,18.2c-1.16,9.63-44.48,34.7-70.06,34.7-20.87,0-39.94-57.28-46.32-74.35S806.6,630.75,826.29,629.62Z" transform="translate(-721.85 -318.24)"/><path class="cls-8" d="M818.57,631.92a11.74,11.74,0,0,1,6.57-2.3" transform="translate(-721.85 -318.24)"/><path class="cls-8" d="M813.46,640a19.37,19.37,0,0,1,1.63-3.94" transform="translate(-721.85 -318.24)"/><path class="cls-8" d="M834.89,721.42a329,329,0,0,1-16.42-36.14c-4-10.64-8.05-29.19-5.8-41.92" transform="translate(-721.85 -318.24)"/><path class="cls-11" d="M825.8,625.79s5.79-8.44,0-15.42S793.58,588.3,783.69,592a5.73,5.73,0,0,0-2,1.15,5.84,5.84,0,0,0-1.41,1.86,5.75,5.75,0,0,0-.56,2.26,5.65,5.65,0,0,0,.37,2.3S799.94,600.46,825.8,625.79Z" transform="translate(-721.85 -318.24)"/><path class="cls-8" d="M822.59,623.4c.82.77,1.65,1.55,2.47,2.37" transform="translate(-721.85 -318.24)"/><path class="cls-8" d="M786.85,601.14c6.87,2.08,18,7,31.19,18.22" transform="translate(-721.85 -318.24)"/><path class="cls-8" d="M779.36,599.57a23.68,23.68,0,0,1,3.46.52" transform="translate(-721.85 -318.24)"/><path class="cls-8" d="M885,732.64s0-6-3.18-7.71-.58,7.71-3.76,15.43" transform="translate(-721.85 -318.24)"/><path class="cls-8" d="M851.46,666.55s2.62.27,4.93,25.61" transform="translate(-721.85 -318.24)"/><path class="cls-11" d="M812.06,569.94l2.22.41a21.85,21.85,0,0,0,2.16,9c2.08,3.86,5,4.59,11.93,12.1,6.44,7,9.41,2.43,9.78,1.78a5.14,5.14,0,0,1-1.61,2.08,5.21,5.21,0,0,1-2.43,1c-7.1.69-11.4-1.52-12.05,4.48-1.14-4.64-4.85-10.22-7.78-17.21A30.41,30.41,0,0,1,812.06,569.94Z" transform="translate(-721.85 -318.24)"/><path class="cls-26" d="M815.09,565.57c.81-4.77-4.15-14.5-1.55-12.24s6,10.59,10,13.76,3.67,10.6,9.46,7.48a11.15,11.15,0,0,1,8.29-1,5.33,5.33,0,0,0-.28,1c-1,5.78.19,21-6.92,21.7a57.39,57.39,0,0,1-6.15.14c-4-4.21-9.76-10.45-12-14.08C812.46,576.52,814.28,570.35,815.09,565.57Z" transform="translate(-721.85 -318.24)"/><path class="cls-9" d="M839.74,579.39s-3.64-1.59-3.57-3.87" transform="translate(-721.85 -318.24)"/></svg>