<svg id="Layer_1" data-name="Layer 1" xmlns="http://www.w3.org/2000/svg" viewBox="0 0 374.03 275.81"><defs><style>.cls-1{fill:#ebebeb;}.cls-2{fill:#f5f5f5;}.cls-3{fill:#fafafa;}.cls-4{fill:#f0f0f0;}.cls-5{fill:#e6e6e6;}.cls-6,.cls-8{fill:#e0e0e0;}.cls-26,.cls-27,.cls-7,.cls-8{opacity:0.3;}.cls-10,.cls-14,.cls-16,.cls-20,.cls-21,.cls-22,.cls-24,.cls-25,.cls-26,.cls-27,.cls-30,.cls-31,.cls-32,.cls-8{isolation:isolate;}.cls-9{fill:#407bff;}.cls-10,.cls-11,.cls-14,.cls-20,.cls-21,.cls-22,.cls-24,.cls-27,.cls-30{fill:#fff;}.cls-10,.cls-12{opacity:0.7;}.cls-13,.cls-14{opacity:0.9;}.cls-15{fill:#eec1bb;}.cls-16{opacity:0.1;}.cls-17,.cls-31{fill:#263238;}.cls-18{fill:#d4827d;}.cls-19{fill:#ffc3bd;}.cls-20,.cls-23{opacity:0.5;}.cls-21{opacity:0.8;}.cls-22{opacity:0.6;}.cls-24,.cls-25,.cls-31{opacity:0.2;}.cls-28{fill:#b97964;}.cls-29{fill:#a24e3f;}.cls-30,.cls-32{opacity:0.4;}</style></defs><title>work3</title><path class="cls-1" d="M1109.84,659.35h-24.77v.19h24.77Z" transform="translate(-773.3 -402.4)"/><path class="cls-1" d="M1021.06,661.38h-6.5v.19h6.5Z" transform="translate(-773.3 -402.4)"/><path class="cls-1" d="M1084.32,652.41H1070v.18h14.36Z" transform="translate(-773.3 -402.4)"/><path class="cls-1" d="M844.85,653.66H812.54v.19h32.31Z" transform="translate(-773.3 -402.4)"/><path class="cls-1" d="M856.25,653.66h-4.74v.19h4.74Z" transform="translate(-773.3 -402.4)"/><path class="cls-1" d="M941.72,656.82H871.64V657h70.08Z" transform="translate(-773.3 -402.4)"/><path class="cls-1" d="M950.58,614H806.15a4.27,4.27,0,0,1-4.27-4.27v-203a4.27,4.27,0,0,1,4.27-4.23H950.58a4.27,4.27,0,0,1,4.27,4.27v203a4.27,4.27,0,0,1-4.27,4.27ZM806.15,402.55a4.08,4.08,0,0,0-4.08,4.08v203a4.08,4.08,0,0,0,4.08,4.08H950.58a4.1,4.1,0,0,0,4.09-4.08v-203a4.1,4.1,0,0,0-4.09-4.08Z" transform="translate(-773.3 -402.4)"/><path class="cls-1" d="M1112.39,614H968a4.26,4.26,0,0,1-3-1.25,4.33,4.33,0,0,1-1.26-3v-203A4.29,4.29,0,0,1,968,402.4h144.44a4.27,4.27,0,0,1,4.26,4.23v203a4.28,4.28,0,0,1-4.26,4.27ZM968,402.55a4.1,4.1,0,0,0-4.09,4.08v203a4.1,4.1,0,0,0,4.09,4.08h144.44a4.1,4.1,0,0,0,4.09-4.08v-203a4.1,4.1,0,0,0-4.09-4.08Z" transform="translate(-773.3 -402.4)"/><path class="cls-1" d="M1147.32,647.31h-374v.19h374Z" transform="translate(-773.3 -402.4)"/><path class="cls-1" d="M1085.05,432.08H991.7v99.4h93.35Z" transform="translate(-773.3 -402.4)"/><path class="cls-2" d="M1079.44,437.69H997.31v88.18h82.13Z" transform="translate(-773.3 -402.4)"/><path class="cls-3" d="M1029.54,525.87h24.69l23.17-88.18h-24.69Z" transform="translate(-773.3 -402.4)"/><path class="cls-3" d="M1041.25,437.69l-23.18,88.18h6l23.17-88.18Z" transform="translate(-773.3 -402.4)"/><path class="cls-2" d="M1086.22,436.75H990.51l-2-4.71h99.75Z" transform="translate(-773.3 -402.4)"/><path class="cls-4" d="M1086.22,439.48H990.51l-2-4.71h99.75Z" transform="translate(-773.3 -402.4)"/><path class="cls-5" d="M1086.22,442.21H990.51l-2-4.71h99.75Z" transform="translate(-773.3 -402.4)"/><path class="cls-6" d="M1086.22,444.94H990.51l-2-4.71h99.75Z" transform="translate(-773.3 -402.4)"/><path class="cls-6" d="M1091.73,426.14H985v6.28h106.71Z" transform="translate(-773.3 -402.4)"/><path class="cls-6" d="M986.11,489.39a1.06,1.06,0,0,1-.77-.32,1.09,1.09,0,0,1-.32-.76V451.65a1.07,1.07,0,0,1,.32-.76,1.06,1.06,0,0,1,.77-.32,1.08,1.08,0,0,1,1.08,1.08v36.66a1.08,1.08,0,0,1-1.08,1.08Z" transform="translate(-773.3 -402.4)"/><path class="cls-6" d="M986.5,431.16h-.79v21.77h.79Z" transform="translate(-773.3 -402.4)"/><path class="cls-6" d="M841,430.15h-1.35v105H841Z" transform="translate(-773.3 -402.4)"/><path class="cls-6" d="M924.83,430.15h-1.35v105h1.35Z" transform="translate(-773.3 -402.4)"/><path class="cls-2" d="M930.11,436.75H834.39l-2-4.71h99.75Z" transform="translate(-773.3 -402.4)"/><path class="cls-2" d="M930.11,443.22H834.39l-2-4.71h99.75Z" transform="translate(-773.3 -402.4)"/><path class="cls-2" d="M930.11,449.69H834.39l-2-4.71h99.75Z" transform="translate(-773.3 -402.4)"/><path class="cls-2" d="M930.11,456.16H834.39l-2-4.71h99.75Z" transform="translate(-773.3 -402.4)"/><path class="cls-2" d="M930.11,462.63H834.39l-2-4.71h99.75Z" transform="translate(-773.3 -402.4)"/><path class="cls-2" d="M930.11,469.1H834.39l-2-4.71h99.75Z" transform="translate(-773.3 -402.4)"/><path class="cls-2" d="M930.11,475.58H834.39l-2-4.72h99.75Z" transform="translate(-773.3 -402.4)"/><path class="cls-2" d="M930.11,482.05H834.39l-2-4.72h99.75Z" transform="translate(-773.3 -402.4)"/><path class="cls-2" d="M930.11,488.52H834.39l-2-4.72h99.75Z" transform="translate(-773.3 -402.4)"/><path class="cls-2" d="M930.11,495H834.39l-2-4.72h99.75Z" transform="translate(-773.3 -402.4)"/><path class="cls-2" d="M930.11,501.46H834.39l-2-4.71h99.75Z" transform="translate(-773.3 -402.4)"/><path class="cls-2" d="M930.11,507.92H834.39l-2-4.71h99.75Z" transform="translate(-773.3 -402.4)"/><path class="cls-2" d="M930.11,514.4H834.39l-2-4.72h99.75Z" transform="translate(-773.3 -402.4)"/><path class="cls-2" d="M930.11,520.86H834.39l-2-4.71h99.75Z" transform="translate(-773.3 -402.4)"/><path class="cls-2" d="M930.11,527.33H834.39l-2-4.71h99.75Z" transform="translate(-773.3 -402.4)"/><path class="cls-2" d="M930.11,533.8H834.39l-2-4.71h99.75Z" transform="translate(-773.3 -402.4)"/><path class="cls-6" d="M932.12,533.8H832.37v2.7h99.75Z" transform="translate(-773.3 -402.4)"/><path class="cls-6" d="M935.6,426.14H828.89v6.28H935.6Z" transform="translate(-773.3 -402.4)"/><path class="cls-6" d="M830,489.39a1.08,1.08,0,0,1-1.08-1.08V451.65a1.08,1.08,0,1,1,2.16,0v36.66a1.08,1.08,0,0,1-1.08,1.08Z" transform="translate(-773.3 -402.4)"/><path class="cls-6" d="M830.38,431.16h-.79v21.77h.79Z" transform="translate(-773.3 -402.4)"/><path class="cls-1" d="M840.11,602.41c-.09.1.41.8-1.64.5-5.05-.75-13.84-2.81-16.28-8-3.5-7.41,7.34-4.7,7-8.5s-12.71-3.13-14-8.69,7.06-2.91,7.17-5.62-9.53-1-11.44-7,5.37-1.58,4.53-4.08-9-13.77-4.55-15.08,11.91,10.27,14.81,11.91,5.44-7.81,8.89-3.82-2,18,2.36,20.65c3.27,2,2.35-3.53,6.66-2.49C849.39,573.56,847.43,594.23,840.11,602.41Z" transform="translate(-773.3 -402.4)"/><path class="cls-2" d="M824.53,572.13a17.6,17.6,0,0,1,4.36.89,34,34,0,0,0-3.1-4,.38.38,0,0,1-.09-.26.33.33,0,0,1,.11-.25.36.36,0,0,1,.25-.11.41.41,0,0,1,.26.09,43.85,43.85,0,0,1,6.21,9,33,33,0,0,0-2.46-18,.28.28,0,0,1,0-.2.23.23,0,0,1,.14-.15.28.28,0,0,1,.36.1A33.72,33.72,0,0,1,833,578.33c.52,1,1,2,1.55,3.16A71,71,0,0,1,838.78,594a25.78,25.78,0,0,0,3-11.42.2.2,0,0,1,0-.11.24.24,0,0,1,.06-.09l.09,0a.2.2,0,0,1,.11,0l.1,0a.22.22,0,0,1,.09.07.15.15,0,0,1,.06.09.2.2,0,0,1,0,.11A25.91,25.91,0,0,1,839,594.78a86.87,86.87,0,0,1,1.89,25.77.28.28,0,0,1,0,.15.44.44,0,0,1-.08.11.35.35,0,0,1-.13.08l-.15,0h0a.43.43,0,0,1-.23-.14.41.41,0,0,1-.07-.26,82.33,82.33,0,0,0-3.87-32.43,10.22,10.22,0,0,0-6-3.4.32.32,0,0,1-.18-.12.29.29,0,0,1-.05-.2.2.2,0,0,1,0-.11.27.27,0,0,1,.07-.08l.1,0h.11a10.6,10.6,0,0,1,5.45,2.71,62.5,62.5,0,0,0-6.38-13,15.63,15.63,0,0,0-5-1.17.28.28,0,0,1-.19-.09.31.31,0,0,1-.07-.2.2.2,0,0,1,0-.11.22.22,0,0,1,.07-.09.33.33,0,0,1,.1-.06Z" transform="translate(-773.3 -402.4)"/><path class="cls-6" d="M846.6,605.28c4.2.07,11.37-3.82,14.22-7.61s-5.18-1.49-4.36-4.49,10.73-.78,12.56-5.11-5.32-3.33-5-5.55,7.68-1.75,10-6.35-4.13-2-3.11-3.93,9.18-9.93,5.77-11.6-11.07,6.68-13.62,7.62-3.17-4.84-6.5-2.08-.84,14.82-4.76,16.41c-2.93,1.19-1.69-4.34-5.05-2.94C840.81,582.1,844.88,605.24,846.6,605.28Z" transform="translate(-773.3 -402.4)"/><g class="cls-7"><path class="cls-8" d="M846.6,605.28c4.2.07,11.37-3.82,14.22-7.61s-5.18-1.49-4.36-4.49,10.73-.78,12.56-5.11-5.32-3.33-5-5.55,7.68-1.75,10-6.35-4.13-2-3.11-3.93,9.18-9.93,5.77-11.6-11.07,6.68-13.62,7.62-3.17-4.84-6.5-2.08-.84,14.82-4.76,16.41c-2.93,1.19-1.69-4.34-5.05-2.94C840.81,582.1,844.88,605.24,846.6,605.28Z" transform="translate(-773.3 -402.4)"/></g><path class="cls-2" d="M848,600.25a.28.28,0,0,1-.15-.13,22.08,22.08,0,0,1-1.89-11.22.25.25,0,0,1,0-.12.23.23,0,0,1,.07-.1.26.26,0,0,1,.1-.07.25.25,0,0,1,.12,0,.2.2,0,0,1,.11,0,.24.24,0,0,1,.09.08.22.22,0,0,1,0,.11.24.24,0,0,1,0,.12,22.43,22.43,0,0,0,1.7,10.68,85.51,85.51,0,0,1,6.39-13.51,29.52,29.52,0,0,1,3.92-16.45.27.27,0,0,1,.17-.13.3.3,0,0,1,.21,0,.27.27,0,0,1,.13.18.32.32,0,0,1,0,.21,29.14,29.14,0,0,0-3.88,15.29,77.8,77.8,0,0,1,10.72-14.34l.13-.1a.32.32,0,0,1,.14,0l.16,0a.34.34,0,0,1,.12.09.38.38,0,0,1,.09.13.77.77,0,0,1,0,.15.42.42,0,0,1,0,.15.47.47,0,0,1-.09.12,72.35,72.35,0,0,0-8.19,10.35,22.17,22.17,0,0,1,7.9-1.42.29.29,0,0,1,.2.09.31.31,0,0,1,.07.2.27.27,0,0,1-.27.27,21.69,21.69,0,0,0-8.46,1.65,89.12,89.12,0,0,0-4.57,7.85,9.48,9.48,0,0,1,7.83-1.38.29.29,0,0,1,.17.14.26.26,0,0,1,0,.21l0,.1a.27.27,0,0,1-.08.07.2.2,0,0,1-.11,0,.22.22,0,0,1-.11,0,9,9,0,0,0-8.27,2,76.15,76.15,0,0,0-8.07,30.73.34.34,0,0,1-.11.25.38.38,0,0,1-.26.11.36.36,0,0,1-.26-.11.39.39,0,0,1-.12-.25A73.7,73.7,0,0,1,848,600.25Z" transform="translate(-773.3 -402.4)"/><path class="cls-4" d="M834.78,646.27c-4-7.53-6.64-18.41-6.64-23.19A13.4,13.4,0,0,1,833,612.89h20.51a13.31,13.31,0,0,1,4.89,10.19c0,4.77-2.63,15.65-6.63,23.19Z" transform="translate(-773.3 -402.4)"/><path class="cls-2" d="M956.7,678.21c80.11,0,145-3.79,145-8.46s-64.93-8.47-145-8.47-145,3.79-145,8.47S876.6,678.21,956.7,678.21Z" transform="translate(-773.3 -402.4)"/><path class="cls-9" d="M992.21,450.75h-18a2.65,2.65,0,0,0-2.5,2.05l-.12.56a6.34,6.34,0,0,1-6.09,5h-17a5.12,5.12,0,0,1-5.24-5v-.56a2.1,2.1,0,0,0-2.14-2.05h-18a12,12,0,0,0-11.78,10.84L897,626.56a9.82,9.82,0,0,0,.42,4.1,9.78,9.78,0,0,0,9.46,6.74h69a12,12,0,0,0,11.78-10.84l14.44-165a9.79,9.79,0,0,0-9.89-10.84Z" transform="translate(-773.3 -402.4)"/><path class="cls-10" d="M992.21,450.75h-18a2.65,2.65,0,0,0-2.5,2.05l-.12.56a6.34,6.34,0,0,1-6.09,5h-17a5.12,5.12,0,0,1-5.24-5v-.56a2.1,2.1,0,0,0-2.14-2.05h-18a12,12,0,0,0-11.78,10.84L897,626.56a9.82,9.82,0,0,0,.42,4.1,9.78,9.78,0,0,0,9.46,6.74h69a12,12,0,0,0,11.78-10.84l14.44-165a9.79,9.79,0,0,0-9.89-10.84Z" transform="translate(-773.3 -402.4)"/><path class="cls-11" d="M985.22,526.64H948.56a2.28,2.28,0,0,1-.89-.18,2.09,2.09,0,0,1-.75-.53,2.25,2.25,0,0,1-.46-.79,2.17,2.17,0,0,1-.1-.91l2.76-31.56A2.66,2.66,0,0,1,950,491a2.63,2.63,0,0,1,1.76-.71H988.4a2.15,2.15,0,0,1,.9.17,2.31,2.31,0,0,1,.74.54,2,2,0,0,1,.46.79,2.15,2.15,0,0,1,.1.91l-2.76,31.56a2.69,2.69,0,0,1-.86,1.7A2.73,2.73,0,0,1,985.22,526.64Z" transform="translate(-773.3 -402.4)"/><path class="cls-11" d="M973,625.32H911.68a5.55,5.55,0,0,1-2.23-.44,5.37,5.37,0,0,1-1.85-1.32,5.16,5.16,0,0,1-1.14-2,5.42,5.42,0,0,1-.24-2.26,6.67,6.67,0,0,1,6.51-6h61.34a5.48,5.48,0,0,1,2.23.44,5.31,5.31,0,0,1,1.86,1.32,5.43,5.43,0,0,1,1.14,2,5.28,5.28,0,0,1,.23,2.27,6.65,6.65,0,0,1-6.51,6Z" transform="translate(-773.3 -402.4)"/><path class="cls-11" d="M977.91,481.58H921.63a3,3,0,0,1-1.25-.23,3,3,0,0,1-1.69-1.85,3.08,3.08,0,0,1-.12-1.28L919,473a3.79,3.79,0,0,1,1.19-2.37,3.69,3.69,0,0,1,2.46-1H979a3,3,0,0,1,1.25.24,3,3,0,0,1,1,.74,3,3,0,0,1,.64,1.1A3,3,0,0,1,982,473l-.46,5.23a3.75,3.75,0,0,1-3.65,3.36Z" transform="translate(-773.3 -402.4)"/><path class="cls-11" d="M989.35,472.81a1,1,0,0,1-1,.93.84.84,0,0,1-.35-.07.72.72,0,0,1-.29-.2,1,1,0,0,1-.18-.31.82.82,0,0,1,0-.35,1,1,0,0,1,.34-.66,1,1,0,0,1,.68-.27.84.84,0,0,1,.35.07.72.72,0,0,1,.29.2.87.87,0,0,1,.18.31A.69.69,0,0,1,989.35,472.81Z" transform="translate(-773.3 -402.4)"/><path class="cls-11" d="M989.11,475.61a1.07,1.07,0,0,1-.33.66,1,1,0,0,1-.68.27.84.84,0,0,1-.35-.07.86.86,0,0,1-.29-.21.83.83,0,0,1-.18-.3.85.85,0,0,1,0-.35,1.06,1.06,0,0,1,.32-.67,1,1,0,0,1,.69-.27.83.83,0,0,1,.34.07.86.86,0,0,1,.29.21.83.83,0,0,1,.18.3A.89.89,0,0,1,989.11,475.61Z" transform="translate(-773.3 -402.4)"/><path class="cls-11" d="M988.87,478.4a1.07,1.07,0,0,1-.33.66,1,1,0,0,1-.69.27.84.84,0,0,1-.35-.07,1,1,0,0,1-.29-.21.69.69,0,0,1-.17-.3.86.86,0,0,1,0-.35,1,1,0,0,1,1-.94.8.8,0,0,1,.34.07.86.86,0,0,1,.29.21.83.83,0,0,1,.18.3A.89.89,0,0,1,988.87,478.4Z" transform="translate(-773.3 -402.4)"/><path class="cls-11" d="M980.66,578.7H912.19a2.15,2.15,0,0,1-.9-.17,2.45,2.45,0,0,1-.74-.53,2.07,2.07,0,0,1-.46-.8,2.15,2.15,0,0,1-.1-.91l3.19-36a2.73,2.73,0,0,1,.85-1.7,2.68,2.68,0,0,1,1.77-.7h68.45a2.11,2.11,0,0,1,.89.17,2.49,2.49,0,0,1,.75.53,2.22,2.22,0,0,1,.45.79,2.19,2.19,0,0,1,.1.91l-3.15,36a2.68,2.68,0,0,1-2.63,2.41Z" transform="translate(-773.3 -402.4)"/><path class="cls-11" d="M931,586.23H909.71a.59.59,0,0,1-.22-.05.57.57,0,0,1-.18-.12.49.49,0,0,1-.11-.2.53.53,0,0,1,0-.22.64.64,0,0,1,.2-.41.69.69,0,0,1,.43-.18h21.32a.54.54,0,0,1,.22.05.59.59,0,0,1,.19.13.59.59,0,0,1,.11.19.82.82,0,0,1,0,.22.73.73,0,0,1-.21.42A.74.74,0,0,1,931,586.23Z" transform="translate(-773.3 -402.4)"/><path class="cls-11" d="M957.67,586.23H934.79a.57.57,0,0,1-.22,0,.59.59,0,0,1-.18-.13.52.52,0,0,1-.11-.19.46.46,0,0,1,0-.23.65.65,0,0,1,.21-.41.69.69,0,0,1,.43-.18h22.89a.54.54,0,0,1,.22.05.46.46,0,0,1,.18.13.45.45,0,0,1,.11.19.55.55,0,0,1,0,.22.68.68,0,0,1-.21.42A.72.72,0,0,1,957.67,586.23Z" transform="translate(-773.3 -402.4)"/><path class="cls-11" d="M923.65,591.43H909.26a.59.59,0,0,1-.22,0,.46.46,0,0,1-.18-.13.62.62,0,0,1-.12-.19.58.58,0,0,1,0-.23.68.68,0,0,1,.21-.41.69.69,0,0,1,.43-.18h14.42a.54.54,0,0,1,.22,0,.46.46,0,0,1,.18.13.52.52,0,0,1,.11.19.42.42,0,0,1,0,.22.69.69,0,0,1-.22.43A.66.66,0,0,1,923.65,591.43Z" transform="translate(-773.3 -402.4)"/><path class="cls-11" d="M951.06,591.43H927.44a.54.54,0,0,1-.22,0,.46.46,0,0,1-.18-.13.47.47,0,0,1-.12-.19.58.58,0,0,1,0-.23.65.65,0,0,1,.21-.41.69.69,0,0,1,.43-.18h23.62a.54.54,0,0,1,.22,0,.46.46,0,0,1,.18.13.62.62,0,0,1,.12.19.55.55,0,0,1,0,.22.68.68,0,0,1-.21.42A.67.67,0,0,1,951.06,591.43Z" transform="translate(-773.3 -402.4)"/><path class="cls-11" d="M947.25,596.62H908.8a.57.57,0,0,1-.22,0,.75.75,0,0,1-.18-.13.52.52,0,0,1-.11-.19.6.6,0,0,1,0-.23.61.61,0,0,1,.21-.41.67.67,0,0,1,.43-.18h38.44a.54.54,0,0,1,.22,0,.46.46,0,0,1,.18.13.62.62,0,0,1,.12.19.55.55,0,0,1,0,.22.68.68,0,0,1-.21.42A.74.74,0,0,1,947.25,596.62Z" transform="translate(-773.3 -402.4)"/><path class="cls-11" d="M953.58,596.62H951a.54.54,0,0,1-.22,0,.59.59,0,0,1-.18-.13.76.76,0,0,1-.12-.19.6.6,0,0,1,0-.23.65.65,0,0,1,.21-.41.67.67,0,0,1,.43-.18h2.54a.54.54,0,0,1,.22,0,.46.46,0,0,1,.18.13.45.45,0,0,1,.11.19.55.55,0,0,1,0,.22.63.63,0,0,1-.21.42A.71.71,0,0,1,953.58,596.62Z" transform="translate(-773.3 -402.4)"/><path class="cls-11" d="M926.29,601.82H908.34a.59.59,0,0,1-.22-.05.46.46,0,0,1-.18-.13.52.52,0,0,1-.11-.19.56.56,0,0,1,0-.22.68.68,0,0,1,.21-.42.7.7,0,0,1,.44-.18H926.4a.59.59,0,0,1,.22,0,.46.46,0,0,1,.18.13.62.62,0,0,1,.12.19.58.58,0,0,1,0,.23.65.65,0,0,1-.21.41A.7.7,0,0,1,926.29,601.82Z" transform="translate(-773.3 -402.4)"/><path class="cls-11" d="M952.41,601.82H930.06a.54.54,0,0,1-.22-.05.46.46,0,0,1-.18-.13.76.76,0,0,1-.12-.19.55.55,0,0,1,0-.22.63.63,0,0,1,.21-.42.69.69,0,0,1,.43-.18h22.35a.59.59,0,0,1,.22,0,.46.46,0,0,1,.18.13.45.45,0,0,1,.11.19.44.44,0,0,1,0,.23.67.67,0,0,1-.2.41A.69.69,0,0,1,952.41,601.82Z" transform="translate(-773.3 -402.4)"/><path class="cls-11" d="M930,607H907.89a.59.59,0,0,1-.22,0,.46.46,0,0,1-.18-.13.45.45,0,0,1-.11-.19.55.55,0,0,1,0-.22.68.68,0,0,1,.21-.42.74.74,0,0,1,.43-.17h22.09a.54.54,0,0,1,.22,0,.64.64,0,0,1,.19.13.52.52,0,0,1,.11.19.65.65,0,0,1-.18.64A.69.69,0,0,1,930,607Z" transform="translate(-773.3 -402.4)"/><path class="cls-11" d="M951.56,607H933.75a.59.59,0,0,1-.22,0,.46.46,0,0,1-.18-.13.45.45,0,0,1-.11-.19.55.55,0,0,1,0-.22.68.68,0,0,1,.21-.42.74.74,0,0,1,.43-.17h17.8a.54.54,0,0,1,.22,0,.59.59,0,0,1,.18.13.76.76,0,0,1,.12.19.6.6,0,0,1,0,.23.63.63,0,0,1-.21.41A.69.69,0,0,1,951.56,607Z" transform="translate(-773.3 -402.4)"/><path class="cls-9" d="M984.35,523.64a.58.58,0,0,1-.23.18.74.74,0,0,1-.29.08.73.73,0,0,1-.29,0,.64.64,0,0,1-.25-.15l-30.62-29.22a.74.74,0,0,1,0-1.05.66.66,0,0,1,.23-.18,1,1,0,0,1,.29-.08.92.92,0,0,1,.29,0,.79.79,0,0,1,.25.15l30.62,29.22a.75.75,0,0,1,.22.53A.73.73,0,0,1,984.35,523.64Z" transform="translate(-773.3 -402.4)"/><path class="cls-9" d="M950,523.64a.84.84,0,0,1-.13-.27.76.76,0,0,1,0-.3.73.73,0,0,1,.1-.28.67.67,0,0,1,.2-.21l15.62-12.77a.71.71,0,0,1,.54-.18.77.77,0,0,1,.51.24.66.66,0,0,1,.12.27.72.72,0,0,1,0,.29.85.85,0,0,1-.1.28.7.7,0,0,1-.2.22L951,523.7a.76.76,0,0,1-.54.19A.83.83,0,0,1,950,523.64Z" transform="translate(-773.3 -402.4)"/><path class="cls-9" d="M970.14,507.13a.83.83,0,0,1-.12-.27.7.7,0,0,1,0-.29.94.94,0,0,1,.1-.28.83.83,0,0,1,.2-.22L986,493.28a.75.75,0,0,1,.54-.18.74.74,0,0,1,.51.25.91.91,0,0,1,.13.26.76.76,0,0,1,0,.3.73.73,0,0,1-.1.28.67.67,0,0,1-.2.21l-15.65,12.8a.8.8,0,0,1-.54.18A.85.85,0,0,1,970.14,507.13Z" transform="translate(-773.3 -402.4)"/><g class="cls-12"><path class="cls-10" d="M984.35,523.64a.58.58,0,0,1-.23.18.74.74,0,0,1-.29.08.73.73,0,0,1-.29,0,.64.64,0,0,1-.25-.15l-30.62-29.22a.74.74,0,0,1,0-1.05.66.66,0,0,1,.23-.18,1,1,0,0,1,.29-.08.92.92,0,0,1,.29,0,.79.79,0,0,1,.25.15l30.62,29.22a.75.75,0,0,1,.22.53A.73.73,0,0,1,984.35,523.64Z" transform="translate(-773.3 -402.4)"/></g><g class="cls-12"><path class="cls-10" d="M950,523.64a.84.84,0,0,1-.13-.27.76.76,0,0,1,0-.3.73.73,0,0,1,.1-.28.67.67,0,0,1,.2-.21l15.62-12.77a.71.71,0,0,1,.54-.18.77.77,0,0,1,.51.24.66.66,0,0,1,.12.27.72.72,0,0,1,0,.29.85.85,0,0,1-.1.28.7.7,0,0,1-.2.22L951,523.7a.76.76,0,0,1-.54.19A.83.83,0,0,1,950,523.64Z" transform="translate(-773.3 -402.4)"/></g><g class="cls-12"><path class="cls-10" d="M970.14,507.13a.83.83,0,0,1-.12-.27.7.7,0,0,1,0-.29.94.94,0,0,1,.1-.28.83.83,0,0,1,.2-.22L986,493.28a.75.75,0,0,1,.54-.18.74.74,0,0,1,.51.25.91.91,0,0,1,.13.26.76.76,0,0,1,0,.3.73.73,0,0,1-.1.28.67.67,0,0,1-.2.21l-15.65,12.8a.8.8,0,0,1-.54.18A.85.85,0,0,1,970.14,507.13Z" transform="translate(-773.3 -402.4)"/></g><path class="cls-9" d="M897.28,447.16h-9.73a3.64,3.64,0,0,0-2.51,1,3.57,3.57,0,0,0-1,2.51v9.73a3.55,3.55,0,0,0,3.56,3.56h9.72a3.55,3.55,0,0,0,3.56-3.56v-9.73a3.55,3.55,0,0,0-.27-1.36,3.58,3.58,0,0,0-3.3-2.2Zm-4.84,3.45c1.46,0,2.24,1.18,2.24,2.64s-.78,2.65-2.24,2.65-2.25-1.18-2.25-2.65S891,450.61,892.44,450.61Zm5.84,9.92H886.59a.32.32,0,0,1-.14,0,.37.37,0,0,1-.12-.07l.75-2.05a3.31,3.31,0,0,1,1.22-1.59,3.36,3.36,0,0,1,1.92-.6h4.42a3.35,3.35,0,0,1,3.14,2.19l.75,2.05a.29.29,0,0,1-.12.07A.28.28,0,0,1,898.28,460.53Z" transform="translate(-773.3 -402.4)"/><path class="cls-10" d="M897.28,447.16h-9.73a3.64,3.64,0,0,0-2.51,1,3.57,3.57,0,0,0-1,2.51v9.73a3.55,3.55,0,0,0,3.56,3.56h9.72a3.55,3.55,0,0,0,3.56-3.56v-9.73a3.55,3.55,0,0,0-.27-1.36,3.58,3.58,0,0,0-3.3-2.2Zm-4.84,3.45c1.46,0,2.24,1.18,2.24,2.64s-.78,2.65-2.24,2.65-2.25-1.18-2.25-2.65S891,450.61,892.44,450.61Zm5.84,9.92H886.59a.32.32,0,0,1-.14,0,.37.37,0,0,1-.12-.07l.75-2.05a3.31,3.31,0,0,1,1.22-1.59,3.36,3.36,0,0,1,1.92-.6h4.42a3.35,3.35,0,0,1,3.14,2.19l.75,2.05a.29.29,0,0,1-.12.07A.28.28,0,0,1,898.28,460.53Z" transform="translate(-773.3 -402.4)"/><path class="cls-9" d="M862.81,487h-7.36a4.73,4.73,0,0,0-3.39,1.4,4.65,4.65,0,0,0-1,1.55,4.87,4.87,0,0,0-.37,1.84v7.36a4.8,4.8,0,0,0,4.8,4.79h7.36a4.78,4.78,0,0,0,4.42-3,4.6,4.6,0,0,0,.36-1.83v-7.36a4.68,4.68,0,0,0-.36-1.84,4.75,4.75,0,0,0-1-1.55,4.73,4.73,0,0,0-3.38-1.4Zm-3.68,12.49s-3-3.29-3-5a3,3,0,0,1,.89-2.14,3,3,0,0,1,4.28,0,3,3,0,0,1,.89,2.14C862.15,496.22,859.13,499.51,859.13,499.51Z" transform="translate(-773.3 -402.4)"/><path class="cls-9" d="M859.13,493.17a1.42,1.42,0,0,0-.78.23,1.47,1.47,0,0,0-.51.62,1.45,1.45,0,0,0-.08.8,1.37,1.37,0,0,0,.38.71,1.3,1.3,0,0,0,.71.38,1.37,1.37,0,0,0,.8-.08,1.35,1.35,0,0,0,.62-.51,1.42,1.42,0,0,0,.23-.77,1.37,1.37,0,0,0-1.37-1.38Z" transform="translate(-773.3 -402.4)"/><g class="cls-12"><path class="cls-10" d="M862.81,487h-7.36a4.73,4.73,0,0,0-3.39,1.4,4.65,4.65,0,0,0-1,1.55,4.87,4.87,0,0,0-.37,1.84v7.36a4.8,4.8,0,0,0,4.8,4.79h7.36a4.78,4.78,0,0,0,4.42-3,4.6,4.6,0,0,0,.36-1.83v-7.36a4.68,4.68,0,0,0-.36-1.84,4.75,4.75,0,0,0-1-1.55,4.73,4.73,0,0,0-3.38-1.4Zm-3.68,12.49s-3-3.29-3-5a3,3,0,0,1,.89-2.14,3,3,0,0,1,4.28,0,3,3,0,0,1,.89,2.14C862.15,496.22,859.13,499.51,859.13,499.51Z" transform="translate(-773.3 -402.4)"/><path class="cls-10" d="M859.13,493.17a1.42,1.42,0,0,0-.78.23,1.47,1.47,0,0,0-.51.62,1.45,1.45,0,0,0-.08.8,1.37,1.37,0,0,0,.38.71,1.3,1.3,0,0,0,.71.38,1.37,1.37,0,0,0,.8-.08,1.35,1.35,0,0,0,.62-.51,1.42,1.42,0,0,0,.23-.77,1.37,1.37,0,0,0-1.37-1.38Z" transform="translate(-773.3 -402.4)"/></g><path class="cls-9" d="M1024.42,466.16l4.93-3.19-4.93-3.19Z" transform="translate(-773.3 -402.4)"/><path class="cls-9" d="M1030.77,454.27h-9.4a4,4,0,0,0-4,4v9.4a4,4,0,0,0,4,4h9.4a4,4,0,0,0,4-4v-9.4a4,4,0,0,0-.3-1.53,4,4,0,0,0-2.17-2.17A4,4,0,0,0,1030.77,454.27Zm-4.7,15a6.26,6.26,0,0,1-1.22-12.4,6.26,6.26,0,0,1,7.48,6.15,6.25,6.25,0,0,1-6.26,6.24Z" transform="translate(-773.3 -402.4)"/><g class="cls-12"><path class="cls-10" d="M1024.42,466.16l4.93-3.19-4.93-3.19Z" transform="translate(-773.3 -402.4)"/><path class="cls-10" d="M1030.77,454.27h-9.4a4,4,0,0,0-4,4v9.4a4,4,0,0,0,4,4h9.4a4,4,0,0,0,4-4v-9.4a4,4,0,0,0-.3-1.53,4,4,0,0,0-2.17-2.17A4,4,0,0,0,1030.77,454.27Zm-4.7,15a6.26,6.26,0,0,1-1.22-12.4,6.26,6.26,0,0,1,7.48,6.15,6.25,6.25,0,0,1-6.26,6.24Z" transform="translate(-773.3 -402.4)"/></g><path class="cls-9" d="M1040,490.3v-.57l1.13-.63a7.06,7.06,0,0,0-.42-1.56h-1.29a6,6,0,0,0-.58-1l.67-1.1a8.33,8.33,0,0,0-1.15-1.15l-1.1.67a6.67,6.67,0,0,0-1-.58v-1.29a8.57,8.57,0,0,0-1.56-.42l-.63,1.13h-1.15l-.63-1.13a8.46,8.46,0,0,0-1.57.42v1.29a6.57,6.57,0,0,0-1,.58l-1.11-.67a7.81,7.81,0,0,0-1.15,1.15l.67,1.1a6.76,6.76,0,0,0-.58,1h-1.29a8.36,8.36,0,0,0-.42,1.56l1.13.63v1.15l-1.13.63a7.65,7.65,0,0,0,.42,1.56h1.29a6.2,6.2,0,0,0,.58,1l-.67,1.11a8.33,8.33,0,0,0,1.15,1.15l1.11-.67a5.46,5.46,0,0,0,1,.58v1.29a8.46,8.46,0,0,0,1.57.42l.63-1.13h1.15l.63,1.13a7.06,7.06,0,0,0,1.56-.42v-1.29a6.67,6.67,0,0,0,1-.58l1.1.67a8.92,8.92,0,0,0,1.15-1.15l-.67-1.11a5.54,5.54,0,0,0,.58-1h1.29a7.06,7.06,0,0,0,.42-1.56l-1.13-.63C1040,490.67,1040,490.5,1040,490.3Zm-6.52,4.43A4.47,4.47,0,0,1,1031,494a4.43,4.43,0,0,1,1.59-8,4.48,4.48,0,0,1,2.56.25,4.53,4.53,0,0,1,2,1.63,4.42,4.42,0,0,1-3.68,6.89Z" transform="translate(-773.3 -402.4)"/><path class="cls-10" d="M1040,490.3v-.57l1.13-.63a7.06,7.06,0,0,0-.42-1.56h-1.29a6,6,0,0,0-.58-1l.67-1.1a8.33,8.33,0,0,0-1.15-1.15l-1.1.67a6.67,6.67,0,0,0-1-.58v-1.29a8.57,8.57,0,0,0-1.56-.42l-.63,1.13h-1.15l-.63-1.13a8.46,8.46,0,0,0-1.57.42v1.29a6.57,6.57,0,0,0-1,.58l-1.11-.67a7.81,7.81,0,0,0-1.15,1.15l.67,1.1a6.76,6.76,0,0,0-.58,1h-1.29a8.36,8.36,0,0,0-.42,1.56l1.13.63v1.15l-1.13.63a7.65,7.65,0,0,0,.42,1.56h1.29a6.2,6.2,0,0,0,.58,1l-.67,1.11a8.33,8.33,0,0,0,1.15,1.15l1.11-.67a5.46,5.46,0,0,0,1,.58v1.29a8.46,8.46,0,0,0,1.57.42l.63-1.13h1.15l.63,1.13a7.06,7.06,0,0,0,1.56-.42v-1.29a6.67,6.67,0,0,0,1-.58l1.1.67a8.92,8.92,0,0,0,1.15-1.15l-.67-1.11a5.54,5.54,0,0,0,.58-1h1.29a7.06,7.06,0,0,0,.42-1.56l-1.13-.63C1040,490.67,1040,490.5,1040,490.3Zm-6.52,4.43A4.47,4.47,0,0,1,1031,494a4.43,4.43,0,0,1,1.59-8,4.48,4.48,0,0,1,2.56.25,4.53,4.53,0,0,1,2,1.63,4.42,4.42,0,0,1-3.68,6.89Z" transform="translate(-773.3 -402.4)"/><path class="cls-9" d="M1022.94,512.54a6.19,6.19,0,0,0,0-.86l1.7-.93a12,12,0,0,0-.63-2.35l-1.93,0a10.11,10.11,0,0,0-.87-1.5l1-1.65a11.59,11.59,0,0,0-1.71-1.72l-1.65,1a11.18,11.18,0,0,0-1.5-.86v-1.93a11.72,11.72,0,0,0-2.34-.63l-.93,1.69h-1.72l-.92-1.69a11.9,11.9,0,0,0-2.34.63v1.93a11.18,11.18,0,0,0-1.5.86l-1.61-1a11.65,11.65,0,0,0-1.72,1.72l1,1.65a9.25,9.25,0,0,0-.86,1.5l-1.93,0a11.81,11.81,0,0,0-.63,2.35l1.7.93a8.24,8.24,0,0,0,0,1.72l-1.7,1a11.9,11.9,0,0,0,.63,2.34l1.93,0a9.7,9.7,0,0,0,.86,1.5l-1,1.65a11.59,11.59,0,0,0,1.72,1.71l1.65-1a10.06,10.06,0,0,0,1.5.86v1.93a11.06,11.06,0,0,0,2.34.62l.94-1.69a8.24,8.24,0,0,0,1.72,0l.94,1.69a11.22,11.22,0,0,0,2.34-.62v-1.93a11.18,11.18,0,0,0,1.5-.86l1.65,1a11.52,11.52,0,0,0,1.71-1.71l-1-1.65a9.25,9.25,0,0,0,.86-1.5l1.93,0a11.9,11.9,0,0,0,.63-2.34l-1.69-1A6.13,6.13,0,0,1,1022.94,512.54Zm-9.72,3.85a3.87,3.87,0,0,1-2.14-.65,3.86,3.86,0,0,1-.58-5.92,3.91,3.91,0,0,1,2-1.05,3.83,3.83,0,0,1,3.94,1.64,3.76,3.76,0,0,1,.65,2.13,3.81,3.81,0,0,1-1.13,2.73,3.79,3.79,0,0,1-1.26.83,3.93,3.93,0,0,1-1.47.29Z" transform="translate(-773.3 -402.4)"/><path class="cls-10" d="M1022.94,512.54a6.19,6.19,0,0,0,0-.86l1.7-.93a12,12,0,0,0-.63-2.35l-1.93,0a10.11,10.11,0,0,0-.87-1.5l1-1.65a11.59,11.59,0,0,0-1.71-1.72l-1.65,1a11.18,11.18,0,0,0-1.5-.86v-1.93a11.72,11.72,0,0,0-2.34-.63l-.93,1.69h-1.72l-.92-1.69a11.9,11.9,0,0,0-2.34.63v1.93a11.18,11.18,0,0,0-1.5.86l-1.61-1a11.65,11.65,0,0,0-1.72,1.72l1,1.65a9.25,9.25,0,0,0-.86,1.5l-1.93,0a11.81,11.81,0,0,0-.63,2.35l1.7.93a8.24,8.24,0,0,0,0,1.72l-1.7,1a11.9,11.9,0,0,0,.63,2.34l1.93,0a9.7,9.7,0,0,0,.86,1.5l-1,1.65a11.59,11.59,0,0,0,1.72,1.71l1.65-1a10.06,10.06,0,0,0,1.5.86v1.93a11.06,11.06,0,0,0,2.34.62l.94-1.69a8.24,8.24,0,0,0,1.72,0l.94,1.69a11.22,11.22,0,0,0,2.34-.62v-1.93a11.18,11.18,0,0,0,1.5-.86l1.65,1a11.52,11.52,0,0,0,1.71-1.71l-1-1.65a9.25,9.25,0,0,0,.86-1.5l1.93,0a11.9,11.9,0,0,0,.63-2.34l-1.69-1A6.13,6.13,0,0,1,1022.94,512.54Zm-9.72,3.85a3.87,3.87,0,0,1-2.14-.65,3.86,3.86,0,0,1-.58-5.92,3.91,3.91,0,0,1,2-1.05,3.83,3.83,0,0,1,3.94,1.64,3.76,3.76,0,0,1,.65,2.13,3.81,3.81,0,0,1-1.13,2.73,3.79,3.79,0,0,1-1.26.83,3.93,3.93,0,0,1-1.47.29Z" transform="translate(-773.3 -402.4)"/><path class="cls-9" d="M995.47,469.17v3.92l-3.74,2a1,1,0,0,0-.36.33,1,1,0,0,0-.12.47.94.94,0,0,0,.12.47,1,1,0,0,0,.36.34l3.74,2v3.92a1.57,1.57,0,0,0,.46,1.12,1.55,1.55,0,0,0,1.11.46h13.39a1.57,1.57,0,0,0,1.12-.46,1.6,1.6,0,0,0,.46-1.12V469.17a1.57,1.57,0,0,0-1.58-1.58H997a1.54,1.54,0,0,0-1.1.47A1.56,1.56,0,0,0,995.47,469.17Z" transform="translate(-773.3 -402.4)"/><g class="cls-13"><path class="cls-14" d="M1000,473.26h7.61a1,1,0,0,0,.94-.94.92.92,0,0,0-.28-.66.9.9,0,0,0-.66-.27H1000a.93.93,0,0,0-.66.27,1,1,0,0,0-.27.66.94.94,0,0,0,.93.94Z" transform="translate(-773.3 -402.4)"/><path class="cls-14" d="M1007.65,475H1000a.94.94,0,0,0-.93.94.92.92,0,0,0,.93.93h7.61a.94.94,0,0,0,.94-.93,1,1,0,0,0-.94-.94Z" transform="translate(-773.3 -402.4)"/><path class="cls-14" d="M1007.65,478.47H1000a.94.94,0,1,0,0,1.87h7.61a.94.94,0,1,0,0-1.87Z" transform="translate(-773.3 -402.4)"/></g><path class="cls-9" d="M919.84,463H923l1.65,3.12a1.17,1.17,0,0,0,.47.49,1.21,1.21,0,0,0,1.3,0,1.17,1.17,0,0,0,.47-.49l1.65-3.12h3.19a2.43,2.43,0,0,0,.89-.17,2.36,2.36,0,0,0,.74-.5,2.19,2.19,0,0,0,.5-.75,2.28,2.28,0,0,0,.18-.89v-11.9a2.3,2.3,0,0,0-2.31-2.3H919.84a2.22,2.22,0,0,0-.88.17,2.3,2.3,0,0,0-1.25,1.25,2.23,2.23,0,0,0-.18.88v12a2.33,2.33,0,0,0,.7,1.59A2.3,2.3,0,0,0,919.84,463Z" transform="translate(-773.3 -402.4)"/><path class="cls-14" d="M925.81,450l-3.68,2.16v6.3h2.74v-4.23h1.89v4.23h2.74v-6.3Z" transform="translate(-773.3 -402.4)"/><path class="cls-9" d="M955.67,634.14h-2.84L951,630.65a.94.94,0,0,0-.39-.4,1.08,1.08,0,0,0-1.48.4l-1.83,3.49h-2.92a2.63,2.63,0,0,0-2.62,2.63v11.29a2.63,2.63,0,0,0,2.62,2.63h11.3a2.63,2.63,0,0,0,2.63-2.63V636.77a2.63,2.63,0,0,0-2.63-2.63Z" transform="translate(-773.3 -402.4)"/><path class="cls-14" d="M951.62,638.46a4.09,4.09,0,0,0-4.27-1,4.15,4.15,0,0,0-1.85,1.35,4.09,4.09,0,0,0-.83,2.12,4.14,4.14,0,0,0,.43,2.24,4.18,4.18,0,0,0,1.57,1.66,4.09,4.09,0,0,0,2.21.55,4,4,0,0,0,2.17-.71.91.91,0,0,0,.24.49l2.55,2.54a.91.91,0,0,0,1.29,0,.93.93,0,0,0,.27-.65,1,1,0,0,0-.27-.65l-2.53-2.53a1,1,0,0,0-.51-.26,4.09,4.09,0,0,0-.47-5.19Zm-.86,4.91a2.93,2.93,0,0,1-1.47.78,2.86,2.86,0,0,1-1.66-.16,2.86,2.86,0,0,1,0-5.29,2.86,2.86,0,0,1,1.66-.17,2.88,2.88,0,0,1,2.09,1.72,2.91,2.91,0,0,1,.22,1.09,3,3,0,0,1-.22,1.1A3.09,3.09,0,0,1,950.76,643.37Z" transform="translate(-773.3 -402.4)"/><path class="cls-15" d="M1076.47,558.92s-6.09,15.11-12.06,16.74-15,.3-15,.3l-2.79.75-2.73-.4h-.09l-3.08-.08a.59.59,0,0,1-.32-.06.51.51,0,0,1-.23-.23.53.53,0,0,1-.08-.32.58.58,0,0,1,.11-.31l1.1-1.49a.74.74,0,0,1,.36-.27l2.94-.94a1,1,0,0,1,.35,0l4.49.71s12.45-2,13.72-3.19,5-13.23,5-13.23Z" transform="translate(-773.3 -402.4)"/><path class="cls-16" d="M1049.75,573.23l-.29,0-4.49-.71a.69.69,0,0,0-.35,0l-2.93.94a.76.76,0,0,0-.37.26l-1.1,1.5a.68.68,0,0,0-.11.31.72.72,0,0,0,.08.32.76.76,0,0,0,.24.23.58.58,0,0,0,.32.06l3.07.08h.1l1.83.26A11.69,11.69,0,0,0,1049.75,573.23Z" transform="translate(-773.3 -402.4)"/><path class="cls-9" d="M1080.15,544c-4.43-1.45-10.66,1.87-13,15.82l9.19,2.71S1086.48,546,1080.15,544Z" transform="translate(-773.3 -402.4)"/><path class="cls-17" d="M1054.39,525.72c0,.47.25.83.55.83s.56-.39.54-.84-.25-.82-.55-.82S1054.39,525.27,1054.39,525.72Z" transform="translate(-773.3 -402.4)"/><path class="cls-18" d="M1056.2,526.18l-2.18,3.6s.75.85,2.39.22Z" transform="translate(-773.3 -402.4)"/><path class="cls-17" d="M1056.61,522.84a.17.17,0,0,1-.1.06.14.14,0,0,1-.11,0,1.92,1.92,0,0,0-.89.06,1.88,1.88,0,0,0-.75.46.27.27,0,0,1-.34,0,.28.28,0,0,1-.07-.17.29.29,0,0,1,.07-.18,2.36,2.36,0,0,1,2.06-.66.12.12,0,0,1,.09,0,.16.16,0,0,1,.08.06.2.2,0,0,1,0,.08.17.17,0,0,1,0,.1A.31.31,0,0,1,1056.61,522.84Z" transform="translate(-773.3 -402.4)"/><path class="cls-15" d="M1072,522.46c.34,6.08.62,8.66-2.07,12.11-4.29,3.71-11.59,4.3-13.74-1.56-1.94-5.24-2.16-14.31,3.46-17.44a8.26,8.26,0,0,1,9.21.75,8.18,8.18,0,0,1,2.1,2.47A8.48,8.48,0,0,1,1072,522.46Z" transform="translate(-773.3 -402.4)"/><path class="cls-15" d="M1063.52,535.77l1.54,9,7.51-1.73-2.63-9.2Z" transform="translate(-773.3 -402.4)"/><path class="cls-17" d="M1058.11,522.91c.38-3.95-1,.62-2.81-4.6s6.8-9.45,8.18-8.47.59,2.46,5.15,3.3a5.18,5.18,0,0,1,4.37,5.28s2.63,1.21,1.69,6.85a23,23,0,0,1-4.49,9.91s-1.72-1.78-4.48-.14a8.81,8.81,0,0,1-2.67-2.73c-1.23-1.84-1.61-3.59-3.3-3.74C1056.24,528.25,1058,524.21,1058.11,522.91Z" transform="translate(-773.3 -402.4)"/><path class="cls-17" d="M1072.52,519.1s3.74-2.29,2.08-4.69S1073.74,517.05,1072.52,519.1Z" transform="translate(-773.3 -402.4)"/><path class="cls-19" d="M1059.18,525.21a4.68,4.68,0,0,0-1.19,3.39c.1,1.64,1.72,1.93,3,1s2.48-2.65,1.74-4.1a2.16,2.16,0,0,0-.69-.78,2.07,2.07,0,0,0-1-.35,2.13,2.13,0,0,0-1,.16A2.09,2.09,0,0,0,1059.18,525.21Z" transform="translate(-773.3 -402.4)"/><path class="cls-16" d="M1063.66,536.62l.61,3.58a6.79,6.79,0,0,1,1.69-4.89,3.12,3.12,0,0,0-1.3.39A3,3,0,0,0,1063.66,536.62Z" transform="translate(-773.3 -402.4)"/><path class="cls-9" d="M1010.85,559.87h-2.14v12.67h2.14Z" transform="translate(-773.3 -402.4)"/><path class="cls-10" d="M1010.85,559.87h-2.14v12.67h2.14Z" transform="translate(-773.3 -402.4)"/><path class="cls-9" d="M996.1,534.72h-5.35a3.64,3.64,0,0,0-3.62,3.63v24.78a3.66,3.66,0,0,0,.27,1.39,3.6,3.6,0,0,0,.79,1.18,3.76,3.76,0,0,0,1.18.79,3.65,3.65,0,0,0,1.38.27h5.35Z" transform="translate(-773.3 -402.4)"/><path class="cls-9" d="M1028.81,534.72H992.62a3.63,3.63,0,0,0-3.62,3.63v24.78a3.62,3.62,0,0,0,3.62,3.62h36.19a3.62,3.62,0,0,0,3.63-3.62V538.35A3.63,3.63,0,0,0,1028.81,534.72Z" transform="translate(-773.3 -402.4)"/><path class="cls-20" d="M1028.81,534.72H992.62a3.63,3.63,0,0,0-3.62,3.63v24.78a3.62,3.62,0,0,0,3.62,3.62h36.19a3.62,3.62,0,0,0,3.63-3.62V538.35A3.63,3.63,0,0,0,1028.81,534.72Z" transform="translate(-773.3 -402.4)"/><path class="cls-17" d="M1028.81,536.22H992.62a2.13,2.13,0,0,0-2.13,2.13v24.78a2.14,2.14,0,0,0,2.13,2.13h36.19a2.14,2.14,0,0,0,2.14-2.13V538.35A2.13,2.13,0,0,0,1028.81,536.22Z" transform="translate(-773.3 -402.4)"/><path class="cls-9" d="M1002,577.85a7.81,7.81,0,0,1,15.62,0Z" transform="translate(-773.3 -402.4)"/><path class="cls-9" d="M1020.41,575.19h-15.63v2.53H1036v-1Z" transform="translate(-773.3 -402.4)"/><path class="cls-21" d="M1020.41,575.19h-15.63v2.53H1036v-1Z" transform="translate(-773.3 -402.4)"/><path class="cls-9" d="M1020.41,577.72h-15.63v-2.53l15.63,1.49Z" transform="translate(-773.3 -402.4)"/><path class="cls-22" d="M1020.41,577.72h-15.63v-2.53l15.63,1.49Z" transform="translate(-773.3 -402.4)"/><path class="cls-17" d="M1054.86,665h-32.23a5.08,5.08,0,0,1-1.88-.37,4.87,4.87,0,0,1-2.65-2.65,5,5,0,0,1-.37-1.88V586a4.85,4.85,0,0,1,1.43-3.46,4.82,4.82,0,0,1,1.59-1.06,4.71,4.71,0,0,1,1.88-.37h32.23a1.3,1.3,0,0,1,.93.38,1.32,1.32,0,0,1,.38.92,1.34,1.34,0,0,1-.38.93,1.3,1.3,0,0,1-.93.38h-32.23a2.32,2.32,0,0,0-.87.16,2.17,2.17,0,0,0-.74.49,2.26,2.26,0,0,0-.5.73,2.32,2.32,0,0,0-.17.87V660.1a2.32,2.32,0,0,0,.17.87,2.07,2.07,0,0,0,.5.73,2.17,2.17,0,0,0,.74.49,2.32,2.32,0,0,0,.87.16h32.23a1.37,1.37,0,0,1,1.23,1.83,1.37,1.37,0,0,1-.28.44,1.28,1.28,0,0,1-.43.3A1.35,1.35,0,0,1,1054.86,665Z" transform="translate(-773.3 -402.4)"/><g class="cls-23"><path class="cls-20" d="M1054.86,665h-32.23a5.08,5.08,0,0,1-1.88-.37,4.87,4.87,0,0,1-2.65-2.65,5,5,0,0,1-.37-1.88V586a4.85,4.85,0,0,1,1.43-3.46,4.82,4.82,0,0,1,1.59-1.06,4.71,4.71,0,0,1,1.88-.37h32.23a1.3,1.3,0,0,1,.93.38,1.32,1.32,0,0,1,.38.92,1.34,1.34,0,0,1-.38.93,1.3,1.3,0,0,1-.93.38h-32.23a2.32,2.32,0,0,0-.87.16,2.17,2.17,0,0,0-.74.49,2.26,2.26,0,0,0-.5.73,2.32,2.32,0,0,0-.17.87V660.1a2.32,2.32,0,0,0,.17.87,2.07,2.07,0,0,0,.5.73,2.17,2.17,0,0,0,.74.49,2.32,2.32,0,0,0,.87.16h32.23a1.37,1.37,0,0,1,1.23,1.83,1.37,1.37,0,0,1-.28.44,1.28,1.28,0,0,1-.43.3A1.35,1.35,0,0,1,1054.86,665Z" transform="translate(-773.3 -402.4)"/></g><path class="cls-9" d="M1022.5,577.72H976.73v3.84h45.77Z" transform="translate(-773.3 -402.4)"/><path class="cls-24" d="M1022.5,577.72H976.73v3.84h45.77Z" transform="translate(-773.3 -402.4)"/><path class="cls-9" d="M1059.45,577.72h-39v3.84h39Z" transform="translate(-773.3 -402.4)"/><path class="cls-20" d="M1059.45,577.72h-39v3.84h39Z" transform="translate(-773.3 -402.4)"/><path class="cls-15" d="M1045.76,637.83l2.16,21.86h-5.18l-5.18-21.29Z" transform="translate(-773.3 -402.4)"/><path class="cls-17" d="M1042.26,658.23l6.6.12a.5.5,0,0,1,.33.12.52.52,0,0,1,.18.3l1.11,5.4a.91.91,0,0,1-.13.66.86.86,0,0,1-.55.38h-.19c-2.39-.08-4.49-.24-7.48-.3-3.49-.06-2.62.38-6.73.37-2.48,0-2.88-2.83-1.84-2.95,4.83-.53,5.35-2,7.24-3.66A2.17,2.17,0,0,1,1042.26,658.23Z" transform="translate(-773.3 -402.4)"/><path class="cls-16" d="M1047.36,654l-1.6-16.16-8.2.57,3.79,15.59Z" transform="translate(-773.3 -402.4)"/><path class="cls-17" d="M1081.2,587.44l-21.23.75s-28.6,10-29.35,17.68c-.82,7.91,8.79,44.28,8.79,44.28h8.53s-2.35-26.69-3.25-34.85,29.76-5.47,35.09-12.44C1084.65,596.48,1081.2,587.44,1081.2,587.44Z" transform="translate(-773.3 -402.4)"/><path class="cls-25" d="M1081.2,587.44l-21.23.75s-28.6,10-29.35,17.68c-.82,7.91,8.79,44.28,8.79,44.28h8.53s-2.35-26.69-3.25-34.85,29.76-5.47,35.09-12.44C1084.65,596.48,1081.2,587.44,1081.2,587.44Z" transform="translate(-773.3 -402.4)"/><path class="cls-9" d="M1049.36,649l.19,3H1039l-1-3Z" transform="translate(-773.3 -402.4)"/><path class="cls-15" d="M1026,638.87l.57,20.82h-5.09l-3-20.82Z" transform="translate(-773.3 -402.4)"/><path class="cls-17" d="M1020.78,658.23l6.61.12a.52.52,0,0,1,.5.42l1.11,5.4a.9.9,0,0,1-.12.66.88.88,0,0,1-.56.38h-.19c-2.38-.08-4.48-.24-7.48-.3-3.5-.06-2.61.38-6.73.37-2.48,0-2.88-2.83-1.83-2.95,4.82-.53,5.35-2,7.23-3.66A2.14,2.14,0,0,1,1020.78,658.23Z" transform="translate(-773.3 -402.4)"/><path class="cls-16" d="M1026.41,654l-.41-15.1h-7.53l2.19,15.12Z" transform="translate(-773.3 -402.4)"/><path class="cls-17" d="M1072,589.2s1.77,16.14-14.65,16.89-29.25,2.64-29.62,8.48,0,35.61,0,35.61h-8.92s-3.48-18.82-4.83-30.49c-1.32-11.34-3.74-19.56,7.91-23.39,12.36-4.09,34.34-7.86,34.34-7.86l15.83-1Z" transform="translate(-773.3 -402.4)"/><path class="cls-9" d="M1029,649l-.56,3h-9.8l-1-3Z" transform="translate(-773.3 -402.4)"/><path class="cls-9" d="M1075.51,542.88s0-3.63-7.36-3.21c-7.81.45-6.33,3.93-6.33,3.93Z" transform="translate(-773.3 -402.4)"/><path class="cls-26" d="M1075.51,542.88s0-3.63-7.36-3.21c-7.81.45-6.33,3.93-6.33,3.93Z" transform="translate(-773.3 -402.4)"/><path class="cls-9" d="M1082.36,559.19c-.49,7.19-.32,28.82-.32,28.82s-15.71,1-28,.63l-1.43-41.6a3.75,3.75,0,0,1,.65-2.06,3.66,3.66,0,0,1,1.7-1.33c3.49-1.36,11.67-2.89,24.47-1.21C1083.8,543,1082.94,550.69,1082.36,559.19Z" transform="translate(-773.3 -402.4)"/><path class="cls-15" d="M1055.09,558.92S1049,574,1043,575.66s-15,.3-15,.3l-2.79.75-2.72-.4h-.1l-3.08-.08a.59.59,0,0,1-.32-.06.51.51,0,0,1-.23-.23.53.53,0,0,1-.08-.32.58.58,0,0,1,.11-.31l1.11-1.49a.74.74,0,0,1,.36-.27l2.93-.94a1.09,1.09,0,0,1,.36,0l4.48.71s12.46-2,13.72-3.19,5-13.23,5-13.23Z" transform="translate(-773.3 -402.4)"/><path class="cls-16" d="M1054.94,551.88s-1,1.13-2.11,2.76l.42,12.05c4.58-2,6.4-13.83,6.4-13.83l-3-2.11Z" transform="translate(-773.3 -402.4)"/><path class="cls-9" d="M1058.77,544c-4.42-1.45-10.66,1.87-13,15.82l9.2,2.68S1065.1,546,1058.77,544Z" transform="translate(-773.3 -402.4)"/><path class="cls-17" d="M1064.63,613.93h-6.92v20.28h6.92Z" transform="translate(-773.3 -402.4)"/><path class="cls-22" d="M1064.63,613.93h-6.92v20.28h6.92Z" transform="translate(-773.3 -402.4)"/><path class="cls-17" d="M1065.7,652.58V626.82h-9.07v25.76L1036,655.44v2.87l25.17-2.15,25.17,2.15v-2.87Z" transform="translate(-773.3 -402.4)"/><path class="cls-9" d="M1035.7,665.33a2.73,2.73,0,1,0-2.73-2.73A2.73,2.73,0,0,0,1035.7,665.33Z" transform="translate(-773.3 -402.4)"/><path class="cls-9" d="M1086.34,665.33a2.73,2.73,0,1,0-2.73-2.73A2.73,2.73,0,0,0,1086.34,665.33Z" transform="translate(-773.3 -402.4)"/><path class="cls-9" d="M1061.17,665.33a2.73,2.73,0,1,0-2.73-2.73A2.73,2.73,0,0,0,1061.17,665.33Z" transform="translate(-773.3 -402.4)"/><path class="cls-26" d="M1064.63,613.93h-6.92v5h6.92Z" transform="translate(-773.3 -402.4)"/><path class="cls-9" d="M1088.52,568H1066a7.14,7.14,0,0,0-7.09,6.46l-1.9,20.36a9.39,9.39,0,0,1-8.86,8.5l-21.76,1.09a5,5,0,0,0-4.72,5v.46a4.13,4.13,0,0,0,4.12,4.12H1092l3.57-38.15a7.26,7.26,0,0,0-.33-2.93,7.2,7.2,0,0,0-3.87-4.27A7.17,7.17,0,0,0,1088.52,568Z" transform="translate(-773.3 -402.4)"/><path class="cls-27" d="M1088.52,568H1066a7.14,7.14,0,0,0-7.09,6.46l-1.9,20.36a9.39,9.39,0,0,1-8.86,8.5l-21.76,1.09a5,5,0,0,0-4.72,5v.46a4.13,4.13,0,0,0,4.12,4.12H1092l3.57-38.15a7.26,7.26,0,0,0-.33-2.93,7.2,7.2,0,0,0-3.87-4.27A7.17,7.17,0,0,0,1088.52,568Z" transform="translate(-773.3 -402.4)"/><path class="cls-17" d="M1036.77,590.91h3.11v16.24a1.5,1.5,0,0,1-1.5,1.5h-.11a1.5,1.5,0,0,1-1.5-1.5Z" transform="translate(-773.3 -402.4)"/><path class="cls-24" d="M1036.77,590.91h3.11v16.24a1.5,1.5,0,0,1-1.5,1.5h-.11a1.5,1.5,0,0,1-1.5-1.5Z" transform="translate(-773.3 -402.4)"/><path class="cls-9" d="M1051.74,586.25h-6.9V592h6.92a2.84,2.84,0,0,0,2.12-.78,3,3,0,0,0,.66-1,2.89,2.89,0,0,0,0-2.26,3,3,0,0,0-.66-1,3.11,3.11,0,0,0-1-.61,3,3,0,0,0-1.14-.17Z" transform="translate(-773.3 -402.4)"/><path class="cls-20" d="M1051.74,586.25h-6.9V592h6.92a2.84,2.84,0,0,0,2.12-.78,3,3,0,0,0,.66-1,2.89,2.89,0,0,0,0-2.26,3,3,0,0,0-.66-1,3.11,3.11,0,0,0-1-.61,3,3,0,0,0-1.14-.17Z" transform="translate(-773.3 -402.4)"/><path class="cls-9" d="M1049,586.25H1024.8A2.75,2.75,0,0,0,1022,589v.21a2.76,2.76,0,0,0,2.76,2.76H1049a2.76,2.76,0,0,0,2.76-2.76V589A2.75,2.75,0,0,0,1049,586.25Z" transform="translate(-773.3 -402.4)"/><path class="cls-27" d="M1049,586.25H1024.8A2.75,2.75,0,0,0,1022,589v.21a2.76,2.76,0,0,0,2.76,2.76H1049a2.76,2.76,0,0,0,2.76-2.76V589A2.75,2.75,0,0,0,1049,586.25Z" transform="translate(-773.3 -402.4)"/><path class="cls-9" d="M1093.6,613.93h-33.15l3.69-39.48a7.12,7.12,0,0,1,7.09-6.45h22.55a7.11,7.11,0,0,1,2.87.61,7,7,0,0,1,2.38,1.71,7.15,7.15,0,0,1,1.83,5.46l-3.22,34.51a4.06,4.06,0,0,1-1.33,2.59A4,4,0,0,1,1093.6,613.93Z" transform="translate(-773.3 -402.4)"/><path class="cls-20" d="M1093.6,613.93h-33.15l3.69-39.48a7.12,7.12,0,0,1,7.09-6.45h22.55a7.11,7.11,0,0,1,2.87.61,7,7,0,0,1,2.38,1.71,7.15,7.15,0,0,1,1.83,5.46l-3.22,34.51a4.06,4.06,0,0,1-1.33,2.59A4,4,0,0,1,1093.6,613.93Z" transform="translate(-773.3 -402.4)"/><path class="cls-17" d="M1016.17,665H983.93a5,5,0,0,1-1.87-.37,4.92,4.92,0,0,1-1.59-1.06,4.85,4.85,0,0,1-1.44-3.47V586a5,5,0,0,1,.37-1.88,4.86,4.86,0,0,1,1.07-1.58,4.89,4.89,0,0,1,3.46-1.43h32.24a1.3,1.3,0,0,1,1.3,1.3,1.3,1.3,0,0,1-.38.93,1.28,1.28,0,0,1-.92.38H983.93a2.35,2.35,0,0,0-.87.16,2.17,2.17,0,0,0-.74.49,2.43,2.43,0,0,0-.5.73,2.32,2.32,0,0,0-.17.87V660.1a2.32,2.32,0,0,0,.17.87,2.21,2.21,0,0,0,.5.73,2.17,2.17,0,0,0,.74.49,2.35,2.35,0,0,0,.87.16h32.24a1.32,1.32,0,0,1,.92.38,1.3,1.3,0,0,1,.38.93,1.35,1.35,0,0,1-.08.52,1.37,1.37,0,0,1-.28.44,1.28,1.28,0,0,1-.43.3A1.3,1.3,0,0,1,1016.17,665Z" transform="translate(-773.3 -402.4)"/><g class="cls-23"><path class="cls-20" d="M1016.17,665H983.93a5,5,0,0,1-1.87-.37,4.92,4.92,0,0,1-1.59-1.06,4.85,4.85,0,0,1-1.44-3.47V586a5,5,0,0,1,.37-1.88,4.86,4.86,0,0,1,1.07-1.58,4.89,4.89,0,0,1,3.46-1.43h32.24a1.3,1.3,0,0,1,1.3,1.3,1.3,1.3,0,0,1-.38.93,1.28,1.28,0,0,1-.92.38H983.93a2.35,2.35,0,0,0-.87.16,2.17,2.17,0,0,0-.74.49,2.43,2.43,0,0,0-.5.73,2.32,2.32,0,0,0-.17.87V660.1a2.32,2.32,0,0,0,.17.87,2.21,2.21,0,0,0,.5.73,2.17,2.17,0,0,0,.74.49,2.35,2.35,0,0,0,.87.16h32.24a1.32,1.32,0,0,1,.92.38,1.3,1.3,0,0,1,.38.93,1.35,1.35,0,0,1-.08.52,1.37,1.37,0,0,1-.28.44,1.28,1.28,0,0,1-.43.3A1.3,1.3,0,0,1,1016.17,665Z" transform="translate(-773.3 -402.4)"/></g><path class="cls-11" d="M994.86,542.13l-2.24-1.5a.32.32,0,0,1-.14-.14.46.46,0,0,1-.05-.2.41.41,0,0,1,.05-.19.4.4,0,0,1,.14-.15l2.24-1.49a.35.35,0,0,1,.28-.06.4.4,0,0,1,.24.16.39.39,0,0,1,0,.28.41.41,0,0,1-.16.23l-1.86,1.23,1.86,1.24a.38.38,0,0,1,.16.23.39.39,0,0,1,0,.28.44.44,0,0,1-.25.14A.37.37,0,0,1,994.86,542.13Z" transform="translate(-773.3 -402.4)"/><path class="cls-11" d="M999.83,542a.34.34,0,0,1,0-.26.45.45,0,0,1,.16-.22l1.87-1.24-1.87-1.25a.38.38,0,0,1-.15-.24.33.33,0,0,1,.06-.27.24.24,0,0,1,.1-.1.31.31,0,0,1,.13-.06h.14l.14,0,2.24,1.5a.5.5,0,0,1,.14.15.39.39,0,0,1,0,.38.5.5,0,0,1-.14.15l-2.24,1.5a.35.35,0,0,1-.14.06.26.26,0,0,1-.15,0,.34.34,0,0,1-.14,0A.29.29,0,0,1,999.83,542Z" transform="translate(-773.3 -402.4)"/><path class="cls-11" d="M996.75,543a.27.27,0,0,1-.12-.06.34.34,0,0,1-.09-.12.23.23,0,0,1,0-.14.34.34,0,0,1,0-.14l1.55-4.89a.54.54,0,0,1,.07-.13.48.48,0,0,1,.11-.09l.14,0a.36.36,0,0,1,.14,0,.29.29,0,0,1,.12.07.24.24,0,0,1,.09.11.22.22,0,0,1,0,.13.38.38,0,0,1,0,.15l-1.54,4.89a.54.54,0,0,1-.07.13.31.31,0,0,1-.11.09.43.43,0,0,1-.14,0A.26.26,0,0,1,996.75,543Z" transform="translate(-773.3 -402.4)"/><path class="cls-11" d="M1009.46,546.77H992.8a.37.37,0,0,1-.15,0,.26.26,0,0,1-.13-.08.57.57,0,0,1-.08-.13.32.32,0,0,1,0-.14.33.33,0,0,1,0-.15.57.57,0,0,1,.08-.13.35.35,0,0,1,.13-.08.37.37,0,0,1,.15,0h16.66a.39.39,0,0,1,.27.11.39.39,0,0,1,.11.28.32.32,0,0,1,0,.14.35.35,0,0,1-.08.13.26.26,0,0,1-.13.08A.32.32,0,0,1,1009.46,546.77Z" transform="translate(-773.3 -402.4)"/><path class="cls-11" d="M1028.59,546.77h-16.67l-.15,0a.23.23,0,0,1-.12-.08.38.38,0,0,1-.09-.13.32.32,0,0,1,0-.14.43.43,0,0,1,.13-.26.37.37,0,0,1,.26-.1h16.66a.39.39,0,0,1,.27.11.39.39,0,0,1,.11.28.41.41,0,0,1-.11.25A.4.4,0,0,1,1028.59,546.77Z" transform="translate(-773.3 -402.4)"/><path class="cls-11" d="M1002.32,550.2H992.8a.37.37,0,0,1-.15,0,.33.33,0,0,1-.21-.21.4.4,0,0,1,0-.15.36.36,0,0,1,.12-.27.37.37,0,0,1,.27-.11h9.52a.39.39,0,0,1,.27.11.38.38,0,0,1,0,.55A.39.39,0,0,1,1002.32,550.2Z" transform="translate(-773.3 -402.4)"/><path class="cls-11" d="M1020.39,550.2h-15.6a.32.32,0,0,1-.14,0,.33.33,0,0,1-.21-.21.4.4,0,0,1,0-.15.39.39,0,0,1,.11-.27.4.4,0,0,1,.27-.11h15.6a.38.38,0,0,1,.38.38.77.77,0,0,1,0,.15.38.38,0,0,1-.09.13.36.36,0,0,1-.12.08A.4.4,0,0,1,1020.39,550.2Z" transform="translate(-773.3 -402.4)"/><path class="cls-11" d="M1018.17,553.63H992.8a.37.37,0,0,1-.27-.11.37.37,0,0,1-.12-.27.33.33,0,0,1,0-.15.57.57,0,0,1,.08-.13.35.35,0,0,1,.13-.08.37.37,0,0,1,.15,0h25.37a.39.39,0,0,1,.27.11.36.36,0,0,1,.12.28.36.36,0,0,1-.12.27A.39.39,0,0,1,1018.17,553.63Z" transform="translate(-773.3 -402.4)"/><path class="cls-11" d="M1026,553.63h-5.3a.39.39,0,0,1-.27-.11.4.4,0,0,1-.12-.27.4.4,0,0,1,.12-.28.39.39,0,0,1,.27-.11h5.3a.39.39,0,0,1,.27.11.36.36,0,0,1,.12.28.36.36,0,0,1-.12.27A.39.39,0,0,1,1026,553.63Z" transform="translate(-773.3 -402.4)"/><path class="cls-11" d="M1004.65,557.06H992.8a.37.37,0,0,1-.15,0,.33.33,0,0,1-.21-.21.39.39,0,0,1,0-.3.5.5,0,0,1,.08-.12.38.38,0,0,1,.13-.09.37.37,0,0,1,.15,0h11.85a.36.36,0,0,1,.27.12.39.39,0,0,1,.11.27.43.43,0,0,1-.11.28A.39.39,0,0,1,1004.65,557.06Z" transform="translate(-773.3 -402.4)"/><path class="cls-11" d="M1021.87,557.06h-14.74a.38.38,0,0,1-.39-.39.39.39,0,0,1,.11-.27.39.39,0,0,1,.28-.12h14.74a.38.38,0,0,1,.28.12.39.39,0,0,1,.11.27.43.43,0,0,1-.11.28A.41.41,0,0,1,1021.87,557.06Z" transform="translate(-773.3 -402.4)"/><path class="cls-11" d="M1009.46,560.49H992.8a.37.37,0,0,1-.15,0,.38.38,0,0,1-.13-.09.5.5,0,0,1-.08-.12.4.4,0,0,1,0-.15.36.36,0,0,1,.12-.27.37.37,0,0,1,.27-.11h16.66a.22.22,0,0,1,.14,0,.57.57,0,0,1,.13.08.35.35,0,0,1,.08.13.4.4,0,0,1,0,.15.39.39,0,0,1-.11.27A.36.36,0,0,1,1009.46,560.49Z" transform="translate(-773.3 -402.4)"/><path class="cls-11" d="M1023.69,560.49h-11.77a.36.36,0,0,1-.27-.12.4.4,0,0,1-.12-.27.4.4,0,0,1,0-.15.38.38,0,0,1,.09-.13.57.57,0,0,1,.13-.08.22.22,0,0,1,.14,0h11.76a.4.4,0,0,1,.27.11.39.39,0,0,1,.11.27.4.4,0,0,1-.11.27A.42.42,0,0,1,1023.69,560.49Z" transform="translate(-773.3 -402.4)"/><path class="cls-28" d="M879.12,493.53c.31,3.52-.45,9.9-3.11,12,4.33,1.56,8.92,4.25,11.86,7.81,2.91-4.24-.4-6.65-.4-6.65-3.74-1.33-3.34-4.17-2.38-6.78Z" transform="translate(-773.3 -402.4)"/><path class="cls-17" d="M893.28,490.49c0,.44.17.82.46.85s.55-.31.6-.74-.17-.83-.46-.86S893.34,490.05,893.28,490.49Z" transform="translate(-773.3 -402.4)"/><path class="cls-17" d="M893.77,489.75l1.08-.21S894.23,490.34,893.77,489.75Z" transform="translate(-773.3 -402.4)"/><path class="cls-29" d="M893.43,491a12.14,12.14,0,0,0,1.33,3,1.88,1.88,0,0,1-1.62.15Z" transform="translate(-773.3 -402.4)"/><path class="cls-17" d="M894.54,488.16a.31.31,0,0,0,.18-.09.26.26,0,0,0,.07-.19.26.26,0,0,0-.07-.18,2.66,2.66,0,0,0-1.08-.59,2.56,2.56,0,0,0-1.23,0,.3.3,0,0,0-.12.17.28.28,0,0,0,0,.2.2.2,0,0,0,.09.09.28.28,0,0,0,.13,0,2,2,0,0,1,1,0,2.09,2.09,0,0,1,.85.47A.25.25,0,0,0,894.54,488.16Z" transform="translate(-773.3 -402.4)"/><path class="cls-28" d="M878.77,487.68c-.17,5.47-.36,7.79,2.08,10.85,3.67,4.58,10.32,3.58,12.1-1.75,1.6-4.79,1.62-13-3.42-15.61A7.34,7.34,0,0,0,878.77,487.68Z" transform="translate(-773.3 -402.4)"/><path class="cls-17" d="M879,498c-5.38-.92-3.84-4.31-3.84-4.31-5.29-1.07-1.2-3.66-1.2-3.66-4.41-1.9,0-3.6,0-3.6-4.25-3.53,1.81-4.75,1.81-4.75-1.5-5.49,3.74-3.23,3.74-3.23,2.84-4.73,5.29-.22,5.29-.22,5-6.73,6.2-1.06,6.2-1.06,5.09-1.34,3.14,4,3.14,4,4.19,1.12.9,3.25.9,3.25,1.61,2-4.23,2.39-4.23,2.39s2.78,4.49,0,5.72L883.75,498S880.48,496.66,879,498Z" transform="translate(-773.3 -402.4)"/><path class="cls-9" d="M884.3,493.6s3.74-9,.81-16.64l2.47-.85S890.81,487.25,884.3,493.6Z" transform="translate(-773.3 -402.4)"/><path class="cls-28" d="M888,492.61c.61,1.28.85,1.85,1.74,2.24a1.56,1.56,0,0,0,.9.21,1.59,1.59,0,0,0,.86-.32,1.57,1.57,0,0,0,.54-.75,1.6,1.6,0,0,0,0-.92c-.24-1.28-1.22-3.18-2.59-3.21a1.77,1.77,0,0,0-1.56.93,1.74,1.74,0,0,0-.22.92A1.8,1.8,0,0,0,888,492.61Z" transform="translate(-773.3 -402.4)"/><path class="cls-28" d="M884.16,511.29s5.07,3.74,7.13,5.24l14.65-6.91a4,4,0,0,1,2.47-3.83l1.05-.44,2.2-1a2.47,2.47,0,0,1,1.31-.21,2.56,2.56,0,0,1,2.19,3.27,6.18,6.18,0,0,1-1.67,2.77,6.24,6.24,0,0,1-2.82,1.59l-2.13.56s-12.56,9.51-17,9.74-11.07-4.18-11.07-4.18Z" transform="translate(-773.3 -402.4)"/><path class="cls-17" d="M872,505c3.86,0,8.19,2.41,15,6.82a18.67,18.67,0,0,1-5.24,8.29s-3.74-1-8.71-5.68C867,508.76,869.61,505,872,505Z" transform="translate(-773.3 -402.4)"/><path class="cls-9" d="M945.44,516.19H908.79a2.15,2.15,0,0,1-.9-.17,2.45,2.45,0,0,1-.74-.53,2.11,2.11,0,0,1-.46-.79,2.19,2.19,0,0,1-.1-.91l2.76-31.56a2.7,2.7,0,0,1,.85-1.7,2.74,2.74,0,0,1,1.77-.71h36.65a2.3,2.3,0,0,1,.9.18,2.18,2.18,0,0,1,.74.53,2.11,2.11,0,0,1,.46.79,2.19,2.19,0,0,1,.1.91l-2.77,31.56a2.64,2.64,0,0,1-2.61,2.4Z" transform="translate(-773.3 -402.4)"/><path class="cls-30" d="M945.44,516.19H908.79a2.15,2.15,0,0,1-.9-.17,2.45,2.45,0,0,1-.74-.53,2.11,2.11,0,0,1-.46-.79,2.19,2.19,0,0,1-.1-.91l2.76-31.56a2.7,2.7,0,0,1,.85-1.7,2.74,2.74,0,0,1,1.77-.71h36.65a2.3,2.3,0,0,1,.9.18,2.18,2.18,0,0,1,.74.53,2.11,2.11,0,0,1,.46.79,2.19,2.19,0,0,1,.1.91l-2.77,31.56a2.64,2.64,0,0,1-2.61,2.4Z" transform="translate(-773.3 -402.4)"/><path class="cls-10" d="M945.58,514.7a1.05,1.05,0,0,0,.67-.27,1.06,1.06,0,0,0,.32-.64l2.76-31.56a.8.8,0,0,0,0-.34.75.75,0,0,0-.17-.3.76.76,0,0,0-.28-.2.83.83,0,0,0-.34-.07H911.84a1,1,0,0,0-.67.27,1,1,0,0,0-.32.64l-2.76,31.56a.8.8,0,0,0,0,.34.8.8,0,0,0,.45.5.83.83,0,0,0,.34.07Z" transform="translate(-773.3 -402.4)"/><path class="cls-9" d="M920.11,496.15l-12,17.32v.32a1,1,0,0,0,0,.34.92.92,0,0,0,.18.3.83.83,0,0,0,.62.27h20.77Z" transform="translate(-773.3 -402.4)"/><path class="cls-27" d="M920.11,496.15l-12,17.32v.32a1,1,0,0,0,0,.34.92.92,0,0,0,.18.3.83.83,0,0,0,.62.27h20.77Z" transform="translate(-773.3 -402.4)"/><path class="cls-9" d="M946.67,512.58l-10-19.05L921.78,514.7h23.8a1.05,1.05,0,0,0,.67-.27,1.06,1.06,0,0,0,.32-.64Z" transform="translate(-773.3 -402.4)"/><path class="cls-9" d="M932.76,490.16a3.75,3.75,0,0,1-1.18,2.38,3.79,3.79,0,0,1-2.47,1,3.05,3.05,0,0,1-2.3-1,3,3,0,0,1-.78-2.38,3.75,3.75,0,0,1,3.66-3.37A2.9,2.9,0,0,1,931,487a3,3,0,0,1,1,.74,3.19,3.19,0,0,1,.65,1.11A3,3,0,0,1,932.76,490.16Z" transform="translate(-773.3 -402.4)"/><path class="cls-30" d="M932.76,490.16a3.75,3.75,0,0,1-1.18,2.38,3.79,3.79,0,0,1-2.47,1,3.05,3.05,0,0,1-2.3-1,3,3,0,0,1-.78-2.38,3.75,3.75,0,0,1,3.66-3.37A2.9,2.9,0,0,1,931,487a3,3,0,0,1,1,.74,3.19,3.19,0,0,1,.65,1.11A3,3,0,0,1,932.76,490.16Z" transform="translate(-773.3 -402.4)"/><path class="cls-28" d="M841.29,643.55l-3.72,11,5.71,2.34,4.46-10.19Z" transform="translate(-773.3 -402.4)"/><path class="cls-9" d="M845.32,656.65a.17.17,0,0,1-.06-.08.1.1,0,0,1,0-.09.1.1,0,0,1,0-.09.14.14,0,0,1,.08,0c.12,0,2.82-.63,3.82,0a.87.87,0,0,1,.38.52.61.61,0,0,1-.2.68,2.87,2.87,0,0,1-2.08-.1A12.75,12.75,0,0,1,845.32,656.65Zm.57,0c1.18.52,2.84,1,3.27.69.06,0,.14-.12.08-.35a.46.46,0,0,0-.08-.19.61.61,0,0,0-.16-.12,1.08,1.08,0,0,0-.29-.13A7.25,7.25,0,0,0,845.89,656.6Z" transform="translate(-773.3 -402.4)"/><path class="cls-9" d="M845.24,656.61a.17.17,0,0,1,0-.16,4.52,4.52,0,0,1,1.81-2.25,1.27,1.27,0,0,1,.47-.09,1.32,1.32,0,0,1,.48.09c.41.17.47.44.44.62-.09.78-2.11,1.72-3,1.82h-.13A.09.09,0,0,1,845.24,656.61Zm2.54-2.12a.88.88,0,0,0-.6,0,3.87,3.87,0,0,0-1.5,1.75c1-.24,2.35-1,2.44-1.5,0,0,0-.16-.25-.27h-.09Z" transform="translate(-773.3 -402.4)"/><path class="cls-17" d="M844.94,655.52l-7.17-2.25a.61.61,0,0,0-.4,0,.55.55,0,0,0-.3.26L834,659a1,1,0,0,0-.13.37.9.9,0,0,0,0,.4,1,1,0,0,0,.17.35,1.08,1.08,0,0,0,.3.26.66.66,0,0,0,.19.09c2.6.75,4.94,1.32,8.15,2.32,3.8,1.16,2.7,1.32,7.14,2.77,2.68.86,4.11-2,3-2.55-5-2.24-5.07-4-6.51-6.5A2.39,2.39,0,0,0,844.94,655.52Z" transform="translate(-773.3 -402.4)"/><path class="cls-31" d="M839.51,648.85l6,3,2.25-5.13-6.45-3.19Z" transform="translate(-773.3 -402.4)"/><path class="cls-9" d="M866.59,541.43s-8,6.14-6.32,25.38a54,54,0,0,1,.75,5.68,48.7,48.7,0,0,1-.82,5.34c-.64,4.43-1.82,20.95-3.07,23.1s-1.76,1.76-5.24,7.69c-3.74,6.37-8.6,17.55-12.36,36.49a21.14,21.14,0,0,0,8.41,3.52s20.54-32.41,24.91-44.47c3.92-10.8,8.58-45.24,8.58-45.24l.37-15Z" transform="translate(-773.3 -402.4)"/><path class="cls-16" d="M875.39,566.81h-5.82s-1.92,18.31,4.41,33.58c.66-2.45,1.33-5.39,2-8.57l2.52-16.13c-.36-2.72-.64-4.8-.68-4.93C877.67,570.33,875.39,566.81,875.39,566.81Z" transform="translate(-773.3 -402.4)"/><path class="cls-28" d="M874.43,648l0,11.74,6.62-.44,1-11.3Z" transform="translate(-773.3 -402.4)"/><path class="cls-9" d="M881.85,659.09l-.09,0a.18.18,0,0,1,0-.09.12.12,0,0,1,0-.1.11.11,0,0,1,.06-.07c.11-.06,2.45-1.5,3.61-1.24a.84.84,0,0,1,.53.36.62.62,0,0,1,.13.34.68.68,0,0,1-.09.37,3,3,0,0,1-2,.59A12.45,12.45,0,0,1,881.85,659.09Zm.53-.23c1.28.11,3,0,3.31-.42,0-.06.08-.16,0-.36a.67.67,0,0,0-.14-.15.49.49,0,0,0-.19-.07H885A7.07,7.07,0,0,0,882.38,658.86Z" transform="translate(-773.3 -402.4)"/><path class="cls-9" d="M881.76,659.09l-.06-.07a.19.19,0,0,1,0-.08,4.7,4.7,0,0,1,1-2.7,1.38,1.38,0,0,1,.42-.25,1.29,1.29,0,0,1,.48-.06c.45,0,.6.25.62.44.17.75-1.42,2.31-2.24,2.71h-.07A.17.17,0,0,1,881.76,659.09Zm1.69-2.85a.88.88,0,0,0-.55.23,3.82,3.82,0,0,0-.84,2.14c.83-.53,1.87-1.74,1.81-2.2,0,0,0-.17-.33-.18h-.09Z" transform="translate(-773.3 -402.4)"/><path class="cls-17" d="M881.12,658.15l-7.48.27a.61.61,0,0,0-.37.15.66.66,0,0,0-.2.34l-1.14,6.15a1,1,0,0,0,.16.76,1,1,0,0,0,.64.42h.21c2.7-.15,5.1-.38,8.46-.5,4-.14,3,.37,7.66.27,2.82-.06,3.21-3.28,2-3.39-5.49-.5-6.12-2.13-8.29-4A2.39,2.39,0,0,0,881.12,658.15Z" transform="translate(-773.3 -402.4)"/><path class="cls-31" d="M874.45,654.07l7.13-.15.53-5.93h-7.68Z" transform="translate(-773.3 -402.4)"/><path class="cls-9" d="M871.07,539.29s-8,10.63-2.08,31.42l6.74,30.37s-6.39,13.8-3,50.23a30.52,30.52,0,0,0,9.91-.22s7.48-38.47,8.61-51.47c1.25-14.31.5-57.47.5-57.47Z" transform="translate(-773.3 -402.4)"/><path class="cls-17" d="M875.92,504.84s-1.24-5.31,6.73-3,7.3,6.86,7.3,6.86Z" transform="translate(-773.3 -402.4)"/><path class="cls-32" d="M875.92,504.84s-1.24-5.31,6.73-3,7.3,6.86,7.3,6.86Z" transform="translate(-773.3 -402.4)"/><path class="cls-17" d="M895.7,518.12c0,1.87-.75,4.56-1.5,7.57a44.49,44.49,0,0,0-.86,4.43c-1.13,8.23-1.5,16.9-1.5,16.9a32.79,32.79,0,0,1-25.69-5.09s3.14-2.66,2.49-21c-.29-8.29-3.28-18.14,10.41-16.59,11.57,1.3,15.46,4.9,16.39,10.51V515l.07.52A22.39,22.39,0,0,1,895.7,518.12Z" transform="translate(-773.3 -402.4)"/><path class="cls-32" d="M895.7,518.12c0,1.87-.75,4.56-1.5,7.57-3.12-3.74-6.26-10.8-6.26-10.8l2.58-3.8,4.55,2.11a12.77,12.77,0,0,1,.37,1.6V515l.07.52A22.39,22.39,0,0,1,895.7,518.12Z" transform="translate(-773.3 -402.4)"/><path class="cls-28" d="M900.46,514.88s4.49,4.43,6.27,6.21l15.51-4.66a4.06,4.06,0,0,1,1-2.16,4.12,4.12,0,0,1,2-1.25l1.09-.28,2.34-.65a2.72,2.72,0,0,1,1.33,0,2.52,2.52,0,0,1,1.15.66,2.48,2.48,0,0,1,.72,1.36,2.55,2.55,0,0,1-.19,1.54,6.5,6.5,0,0,1-2.07,2.49,6.35,6.35,0,0,1-3,1.15l-2.2.23s-13.85,7.57-18.31,7.15-10.31-5.79-10.31-5.79Z" transform="translate(-773.3 -402.4)"/><path class="cls-17" d="M889.32,506.82c3.83.56,7.74,3.61,13.81,9a18.57,18.57,0,0,1-6.42,7.42s-3.54-1.55-7.76-6.91C883.85,509.81,887,506.48,889.32,506.82Z" transform="translate(-773.3 -402.4)"/></svg>